<?xml version="1.0" standalone="no"?><!-- Generator: Gravit.io --><svg xmlns="http://www.w3.org/2000/svg" xmlns:xlink="http://www.w3.org/1999/xlink" style="isolation:isolate" viewBox="0 0 595.276 841.89" width="595.276" height="841.89"><defs><clipPath id="_clipPath_h1cXclip9VfDAxDbp0NiWbzKzJNCCQEH"><rect width="595.276" height="841.89"/></clipPath></defs><g clip-path="url(#_clipPath_h1cXclip9VfDAxDbp0NiWbzKzJNCCQEH)"><clipPath id="_clipPath_60Bow9FvSkfBUbLGU5PHZEawqhTiQybR"><path d=" M 0 0 L 595.276 0 L 595.276 841.89 L 0 841.89 L 0 0 Z " fill="rgb(255,255,255)"/></clipPath><g clip-path="url(#_clipPath_60Bow9FvSkfBUbLGU5PHZEawqhTiQybR)"><path d=" M 469.133 421.907 C 469.133 474.275 426.675 516.735 374.306 516.735 C 321.937 516.735 279.482 474.275 279.482 421.907 C 279.482 369.537 321.937 327.083 374.306 327.083 C 426.675 327.083 469.133 369.537 469.133 421.907 Z " fill="rgb(236,52,56)"/><path d=" M 181.097 463.639 L 176.454 463.639 C 175.023 463.639 174.136 462.92 173.605 462.032 C 172.884 460.782 171.82 460.782 171.098 461.315 C 167.885 463.276 162.721 465.414 155.584 465.414 C 137.909 465.414 126.143 451.862 126.143 436.51 C 126.143 421.17 137.909 407.612 155.584 407.612 C 160.215 407.612 165.037 408.68 168.783 410.464 C 170.213 411.173 171.289 410.109 171.289 408.321 C 171.289 400.298 165.568 392.091 155.584 392.091 C 149.346 392.091 144.337 393.876 140.768 395.839 C 138.452 397.092 137.022 396.193 135.769 394.055 L 133.453 389.953 C 132.2 387.629 133.808 385.487 135.415 384.599 C 141.122 381.387 147.716 379.425 155.584 379.425 C 173.251 379.425 185.022 392.983 185.022 408.321 L 185.022 459.707 C 185.022 462.209 183.591 463.639 181.097 463.639 Z  M 155.584 420.281 C 145.578 420.281 139.87 428.485 139.87 436.51 C 139.87 444.545 145.578 452.746 155.584 452.746 C 165.568 452.746 171.289 444.545 171.289 436.51 C 171.289 428.485 165.568 420.281 155.584 420.281 Z " fill="rgb(55,53,53)"/><path d=" M 251.751 465.414 C 234.081 465.414 222.304 451.861 222.304 436.51 L 222.304 396.913 C 222.304 394.408 220.888 392.983 218.38 392.983 L 214.457 392.983 C 211.965 392.983 210.534 391.552 210.534 389.06 L 210.534 385.132 C 210.534 382.638 211.965 381.209 214.457 381.209 L 218.38 381.209 C 220.888 381.209 222.304 379.777 222.304 377.284 L 222.304 361.579 C 222.304 359.086 223.734 357.656 226.241 357.656 L 232.124 357.656 C 234.615 357.656 236.043 359.086 236.043 361.579 L 236.043 377.284 C 236.043 379.777 237.474 381.209 239.968 381.209 L 259.597 381.209 C 262.089 381.209 263.52 382.638 263.52 385.132 L 263.52 389.06 C 263.52 391.552 262.089 392.983 259.597 392.983 L 239.968 392.983 C 237.474 392.983 236.043 394.408 236.043 396.913 L 236.043 436.51 C 236.043 444.545 241.752 452.746 251.751 452.746 C 257.104 452.746 260.128 450.431 262.621 448.29 C 265.126 446.148 266.912 445.97 269.229 447.582 L 272.796 450.076 C 274.758 451.506 274.935 453.998 273.516 455.606 C 269.048 460.956 261.734 465.414 251.751 465.414 Z " fill="rgb(55,53,53)"/><path d=" M 332.049 465.414 C 314.394 465.414 302.612 451.861 302.612 436.51 L 302.612 408.32 C 302.612 392.983 314.394 379.425 332.049 379.425 C 349.715 379.425 361.498 392.983 361.498 408.32 L 361.498 436.51 C 361.498 451.861 349.715 465.414 332.049 465.414 Z  M 347.754 408.32 C 347.754 400.298 342.047 392.091 332.049 392.091 C 322.064 392.091 316.356 400.298 316.356 408.32 L 316.356 436.51 C 316.356 444.545 322.064 452.746 332.049 452.746 C 342.047 452.746 347.754 444.545 347.754 436.51 L 347.754 408.32 Z " fill="rgb(254,254,254)"/><path d=" M 439.062 463.639 L 433.165 463.639 C 430.671 463.639 429.241 462.209 429.241 459.707 L 429.241 408.321 C 429.241 400.298 423.533 392.091 413.549 392.091 C 403.55 392.091 397.846 400.298 397.846 408.321 L 397.846 459.707 C 397.846 462.209 396.416 463.639 393.923 463.639 L 388.039 463.639 C 385.533 463.639 384.114 462.209 384.114 459.707 L 384.114 385.132 C 384.114 382.638 385.533 381.209 388.039 381.209 L 392.67 381.209 C 394.1 381.209 394.986 381.918 395.531 382.815 C 396.239 384.059 397.315 384.059 398.024 383.525 C 401.238 381.562 406.415 379.425 413.549 379.425 C 431.202 379.425 442.985 392.983 442.985 408.321 L 442.985 459.707 C 442.985 462.209 441.555 463.639 439.062 463.639 Z " fill="rgb(254,254,254)"/></g></g></svg>