<?xml version="1.0" encoding="utf-8"?>
<!-- Generator: Adobe Illustrator 23.0.4, SVG Export Plug-In . SVG Version: 6.00 Build 0)  -->
<svg version="1.1" id="Layer_1" xmlns="http://www.w3.org/2000/svg" xmlns:xlink="http://www.w3.org/1999/xlink" x="0px" y="0px"
	 viewBox="0 0 1000 328.6" style="enable-background:new 0 0 1000 328.6;" xml:space="preserve">
<style type="text/css">
	.st0{fill:#EC3438;}
	.st1{fill:#373535;}
	.st2{fill:#FEFEFE;}
</style>
<g>
	<path class="st0" d="M771.9,164.3c0,84.3-68.4,152.7-152.7,152.7s-152.7-68.4-152.7-152.7S534.9,11.6,619.2,11.6
		S771.9,79.9,771.9,164.3z"/>
	<path class="st1" d="M308.1,231.5h-7.5c-2.3,0-3.7-1.2-4.6-2.6c-1.2-2-2.9-2-4-1.2c-5.2,3.2-13.5,6.6-25,6.6
		c-28.5,0-47.4-21.8-47.4-46.6c0-24.7,18.9-46.5,47.4-46.5c7.5,0,15.2,1.7,21.3,4.6c2.3,1.1,4-0.6,4-3.5c0-12.9-9.2-26.1-25.3-26.1
		c-10,0-18.1,2.9-23.9,6c-3.7,2-6,0.6-8.1-2.9l-3.7-6.6c-2-3.7,0.6-7.2,3.2-8.6c9.2-5.2,19.8-8.3,32.5-8.3
		c28.5,0,47.4,21.8,47.4,46.5v82.8C314.4,229.2,312.1,231.5,308.1,231.5z M267,161.7c-16.1,0-25.3,13.2-25.3,26.1
		c0,12.9,9.2,26.1,25.3,26.1s25.3-13.2,25.3-26.1S283,161.7,267,161.7z"/>
	<path class="st1" d="M421.8,234.3c-28.5,0-47.4-21.8-47.4-46.6V124c0-4-2.3-6.3-6.3-6.3h-6.3c-4,0-6.3-2.3-6.3-6.3v-6.3
		c0-4,2.3-6.3,6.3-6.3h6.3c4,0,6.3-2.3,6.3-6.3V67.1c0-4,2.3-6.3,6.3-6.3h9.5c4,0,6.3,2.3,6.3,6.3v25.3c0,4,2.3,6.3,6.3,6.3h31.6
		c4,0,6.3,2.3,6.3,6.3v6.3c0,4-2.3,6.3-6.3,6.3h-31.6c-4,0-6.3,2.3-6.3,6.3v63.8c0,12.9,9.2,26.1,25.3,26.1c8.6,0,13.5-3.7,17.5-7.2
		c4-3.4,6.9-3.7,10.6-1.1l5.7,4c3.2,2.3,3.4,6.3,1.2,8.9C449.7,227.2,437.9,234.3,421.8,234.3z"/>
	<path class="st2" d="M551.2,234.3c-28.4,0-47.4-21.8-47.4-46.6v-45.4c0-24.7,19-46.5,47.4-46.5c28.5,0,47.4,21.8,47.4,46.5v45.4
		C598.6,212.5,579.6,234.3,551.2,234.3z M576.5,142.4c0-12.9-9.2-26.1-25.3-26.1s-25.3,13.2-25.3,26.1v45.4
		c0,12.9,9.2,26.1,25.3,26.1s25.3-13.2,25.3-26.1V142.4z"/>
	<path class="st2" d="M723.5,231.5H714c-4,0-6.3-2.3-6.3-6.3v-82.8c0-12.9-9.2-26.1-25.3-26.1s-25.3,13.2-25.3,26.1v82.8
		c0,4-2.3,6.3-6.3,6.3h-9.5c-4,0-6.3-2.3-6.3-6.3V105.1c0-4,2.3-6.3,6.3-6.3h7.5c2.3,0,3.7,1.1,4.6,2.6c1.1,2,2.9,2,4,1.1
		c5.2-3.2,13.5-6.6,25-6.6c28.4,0,47.4,21.8,47.4,46.5v82.8C729.8,229.2,727.5,231.5,723.5,231.5z"/>
</g>
</svg>
