<?xml version="1.0" encoding="utf-8"?>
<!-- Generator: Adobe Illustrator 23.1.1, SVG Export Plug-In . SVG Version: 6.00 Build 0)  -->
<svg version="1.1" id="Layer_1" xmlns="http://www.w3.org/2000/svg" xmlns:xlink="http://www.w3.org/1999/xlink" x="0px" y="0px"
	 viewBox="0 0 1720 680" style="enable-background:new 0 0 1720 680;" xml:space="preserve">
<style type="text/css">
	.st0{fill:#354456;}
	.st1{fill:#EF7D00;}
</style>
<path class="st0" d="M1607.3,266.1v3.7l-74.7,94.6V364c-10,14.1-21.1,24.3-33.5,30.7c-12.4,6.4-27.5,9.6-45.3,9.6
	c-24,0-43.4-7-58.4-21c-15-14-22.4-32.2-22.4-54.6c0-27.1,9.3-47.1,28-59.7c18.7-12.7,48-19.1,88-19.1h43.6v-5.8
	c0-11.7-4.6-20.3-13.8-25.7c-9.3-5.4-23.6-8.2-43.2-8.2c-15.9,0-30.6,1.5-44.2,4.7c-13.7,3.2-26.3,8-38.1,14.3v-56.5
	c15.9-3.9,31.7-6.8,47.8-8.8c16-2,32-3,47.9-3c41.8,0,72,8.3,90.5,24.7C1598,202.2,1607.3,229,1607.3,266.1 M1494.2,294
	c-15.5,0-27,2.6-34.9,7.8c-7.8,5.3-11.7,13-11.7,23.2c0,9.4,3.1,16.7,9.4,22c6.3,5.3,15,8,26.1,8c14,0,25.6-5,35.1-15.1
	c9.5-9.9,14.3-22.5,14.3-37.5V294H1494.2z"/>
<polygon class="st0" points="1121,166.6 1195.1,166.6 1252.8,326.7 1310.2,166.6 1384.5,166.6 1293.3,398.3 1212,398.3 "/>
<path class="st0" d="M1005.4,161.1c39.9,0,71.1,10.7,93.4,32.3c22.4,21.6,33.6,51.3,33.6,89.3c0,38.1-11.2,67.9-33.6,89.4
	c-22.4,21.5-53.5,32.3-93.4,32.3c-39.9,0-71.2-10.7-93.7-32.3c-22.5-21.5-33.8-51.3-33.8-89.4c0-38.1,11.3-67.8,33.8-89.3
	C934.1,171.8,965.4,161.1,1005.4,161.1 M1005.4,214c-16.4,0-28.9,5.8-37.5,17.6c-8.6,11.8-12.9,28.8-12.9,51
	c0,22.2,4.3,39.3,12.9,51c8.6,11.8,21.1,17.7,37.5,17.7c16.2,0,28.5-5.9,37-17.7c8.5-11.8,12.9-28.8,12.9-51
	c0-22.2-4.3-39.2-12.9-51C1033.8,219.9,1021.5,214,1005.4,214"/>
<path class="st0" d="M862.6,257.2v141.1h-74.5v-23v-85c0-20-0.4-33.8-1.3-41.4c-1-7.5-2.5-13.1-4.7-16.7c-2.9-4.9-6.9-8.6-11.8-11.3
	c-4.9-2.7-10.6-4-16.9-4c-15.5,0-27.6,5.9-36.4,17.9c-8.8,11.9-13.2,28.5-13.2,49.6v113.9h-74.1V288.9l74.1-88.5v0.2
	c11.2-13.6,23-23.5,35.6-29.9c12.6-6.4,26.4-9.6,41.6-9.6c26.8,0,47,8.2,60.9,24.7C855.6,202.1,862.6,225.9,862.6,257.2"/>
<path class="st1" d="M597,257.2v141.1h-74.5v-23v-85c0-20-0.4-33.8-1.3-41.4c-0.9-7.5-2.5-13.1-4.7-16.7c-2.9-4.9-6.9-8.6-11.8-11.3
	c-4.9-2.7-10.6-4-16.9-4c-15.5,0-27.6,5.9-36.4,17.9c-8.8,11.9-13.2,28.5-13.2,49.6v113.9h-74.1V288.9l74.1-88.5v0.2
	c11.1-13.6,23-23.5,35.6-29.9c12.6-6.4,26.4-9.6,41.6-9.6c26.8,0,47,8.2,61,24.7C590.1,202.1,597,225.9,597,257.2"/>
<path class="st1" d="M119,299.3v-3.8l74.7-94.6v0.4c9.9-14.1,21.1-24.3,33.4-30.7c12.4-6.4,27.5-9.6,45.3-9.6c24,0,43.4,7,58.4,21
	c15,14.1,22.5,32.2,22.5,54.6c0,27.1-9.3,47.1-28,59.7c-18.7,12.7-48,19-88,19h-43.6v5.8c0,11.7,4.6,20.3,13.8,25.7
	c9.2,5.4,23.6,8.2,43.2,8.2c15.9,0,30.6-1.6,44.3-4.7c13.6-3.2,26.3-8,38.1-14.3v56.5c-15.9,3.9-31.8,6.7-47.8,8.8
	c-15.9,2-32,3-48,3c-41.8,0-71.9-8.3-90.5-24.7C128.3,363.1,119,336.4,119,299.3 M232.1,271.4c15.5,0,27-2.6,34.9-7.9
	c7.8-5.3,11.6-13,11.6-23.2c0-9.4-3.1-16.7-9.4-22c-6.3-5.3-15-8-26.1-8c-14,0-25.6,5-35.2,15c-9.5,9.9-14.2,22.5-14.2,37.6v8.5
	H232.1z"/>
<path class="st0" d="M909.5,518.5l-7.5-17.7c-2-4.8-4.9-7.2-8.4-7.2h-4.7v24.9h-10.2v-61.4h19.8c6.4,0,11.4,1.5,15,4.4
	c3.5,2.9,5.3,7,5.3,12.2c0,4.2-1.2,7.7-3.4,10.7c-2.3,3-5.7,5.1-10,6.2v0.2c2.6,0.9,4.9,3.5,6.9,7.7l9.4,20.1H909.5z M888.9,465.7
	v19.4h8c3.3,0,6-1,8.1-2.9c2.1-2,3.1-4.5,3.1-7.5c0-2.8-0.9-5-2.9-6.7c-1.9-1.6-4.6-2.4-8.2-2.4H888.9z M975.7,518.5v-61.4h33.2v8.8
	h-23v17.3h21.4v8.8h-21.4v17.8h24.4v8.8H975.7z M1062.2,516v-11.1c1.8,1.7,4.2,3.2,7.2,4.3c3,1.2,5.8,1.7,8.6,1.7
	c6.6,0,9.9-2.5,9.9-7.7c0-2.1-0.9-4.1-2.4-5.8c-1.6-1.8-4.9-3.9-9.7-6.5c-4.6-2.5-8-5-10.3-7.8c-2.3-2.8-3.4-6.1-3.4-10
	c0-5.1,1.9-9.2,5.8-12.4c3.8-3.2,8.8-4.8,15-4.8c5.2,0,9.7,0.8,13.3,2.4v10.7c-3.7-2.9-8.1-4.4-13.2-4.4c-3.1,0-5.5,0.7-7.3,2.2
	c-1.8,1.4-2.7,3.3-2.7,5.6c0,2.2,0.6,4,1.8,5.5c1.2,1.5,4.1,3.5,8.9,6c5.4,2.8,9.3,5.6,11.7,8.5c2.4,2.8,3.6,6.1,3.6,9.8
	c0,5.3-1.9,9.5-5.7,12.6c-3.8,3.2-9.2,4.7-16.2,4.7c-2.5,0-5.3-0.4-8.1-1.1C1065.8,517.8,1063.6,517,1062.2,516 M1154.2,518.5v-61.4
	h33.2v8.8h-23v17.3h21.4v8.8h-21.4v17.8h24.4v8.8H1154.2z M1284.3,518.5l-5.6-15.5h-24.5l-5.4,15.5h-11.1l23.3-61.4h11.3l23.3,61.4
	H1284.3z M1267.4,470.7c-0.4-1-0.7-2.5-0.9-4.4h-0.3c-0.2,1.6-0.5,3.1-0.9,4.4l-8.4,23.7h18.8L1267.4,470.7z M1378.7,518.5
	l-7.5-17.7c-2-4.8-4.8-7.2-8.5-7.2h-4.7v24.9h-10.2v-61.4h19.8c6.4,0,11.4,1.5,15,4.4c3.5,2.9,5.3,7,5.3,12.2
	c0,4.2-1.1,7.7-3.5,10.7c-2.3,3-5.6,5.1-10,6.2v0.2c2.6,0.9,4.9,3.5,6.9,7.7l9.4,20.1H1378.7z M1358.1,465.7v19.4h8
	c3.3,0,6-1,8.1-2.9c2.1-2,3.1-4.5,3.1-7.5c0-2.8-0.9-5-2.8-6.7c-1.9-1.6-4.6-2.4-8.2-2.4H1358.1z M1486.7,515.9
	c-4.7,2.4-10.5,3.7-17.5,3.7c-9,0-16.2-2.8-21.5-8.4c-5.3-5.6-8-13-8-22.2c0-9.8,3-17.7,9.1-23.8c6-6.1,13.7-9.2,23-9.2
	c6.1,0,11.1,0.9,14.9,2.6V469c-4.5-2.5-9.3-3.8-14.7-3.8c-6.4,0-11.5,2.1-15.6,6.3c-4,4.2-6,9.9-6,17.1c0,6.8,1.9,12.2,5.6,16.2
	c3.7,4,8.7,5.9,14.8,5.9c6,0,11.2-1.4,15.8-4.3V515.9z M1581.6,518.5V492h-28.7v26.6h-10.2v-61.4h10.2V483h28.7v-25.8h10.2v61.4
	H1581.6z"/>
<path class="st1" d="M797.2,457.2l7.5,17.7c2,4.8,4.9,7.2,8.4,7.2h4.7v-24.9H828v61.4h-19.8c-6.4,0-11.4-1.5-15-4.4
	c-3.5-2.9-5.3-7-5.3-12.2c0-4.1,1.1-7.8,3.4-10.7c2.3-3,5.7-5.1,10-6.2v-0.2c-2.6-0.9-4.9-3.5-6.9-7.6l-9.4-20.1H797.2z
	 M817.9,510.1v-19.4h-8c-3.3,0-6,1-8.1,2.9c-2.1,1.9-3.1,4.5-3.1,7.5c0,2.8,0.9,5,2.9,6.6c1.9,1.6,4.6,2.4,8.2,2.4H817.9z
	 M731.1,457.2v61.4h-33.3v-8.8h23.1v-17.3h-21.4v-8.8h21.4v-17.8h-24.4v-8.8H731.1z M644.6,459.7v11.1c-1.8-1.8-4.2-3.2-7.2-4.3
	c-3-1.1-5.8-1.7-8.6-1.7c-6.6,0-9.8,2.6-9.8,7.7c0,2.1,0.8,4.1,2.4,5.8c1.6,1.7,4.9,3.9,9.7,6.4c4.6,2.5,8,5,10.3,7.8
	c2.3,2.8,3.4,6,3.4,10c0,5.1-1.9,9.2-5.8,12.4c-3.9,3.2-8.8,4.8-15,4.8c-5.2,0-9.6-0.7-13.3-2.3v-10.7c3.7,2.9,8.1,4.4,13.2,4.4
	c3.1,0,5.5-0.7,7.3-2.2c1.8-1.4,2.7-3.3,2.7-5.6c0-2.2-0.6-4-1.8-5.5c-1.2-1.5-4.2-3.5-8.9-6c-5.4-2.8-9.3-5.6-11.6-8.5
	c-2.4-2.8-3.6-6.1-3.6-9.8c0-5.3,1.9-9.5,5.7-12.6c3.8-3.1,9.2-4.7,16.2-4.7c2.5,0,5.2,0.4,8.2,1.1
	C641,457.9,643.1,458.7,644.6,459.7 M552.6,457.2v61.4h-33.2v-8.8h23v-17.3H521v-8.8h21.4v-17.8h-24.5v-8.8H552.6z M422.4,457.2
	l5.6,15.5h24.6l5.4-15.5h11.1l-23.2,61.4h-11.3l-23.3-61.4H422.4z M439.4,505c0.3,1,0.6,2.4,0.9,4.4h0.2c0.2-1.7,0.5-3.1,0.9-4.4
	l8.4-23.7H431L439.4,505z M328,457.2l7.4,17.7c2.1,4.8,4.9,7.2,8.4,7.2h4.8v-24.9h10.1v61.4H339c-6.4,0-11.4-1.5-14.9-4.4
	c-3.5-2.9-5.3-7-5.3-12.2c0-4.1,1.2-7.8,3.5-10.7c2.3-3,5.6-5.1,10-6.2v-0.2c-2.6-0.9-4.9-3.5-6.9-7.6l-9.4-20.1H328z M348.7,510.1
	v-19.4h-8c-3.3,0-6,1-8.1,2.9s-3.1,4.5-3.1,7.5c0,2.8,1,5,2.9,6.6c1.9,1.6,4.6,2.4,8.2,2.4H348.7z M220.1,459.8
	c4.7-2.4,10.5-3.7,17.4-3.7c9,0,16.2,2.8,21.5,8.4c5.3,5.6,8,12.9,8,22.2c0,9.7-3,17.6-9,23.8c-6,6.1-13.7,9.2-22.9,9.2
	c-6.1,0-11.1-0.8-14.9-2.5v-10.4c4.4,2.5,9.3,3.9,14.6,3.9c6.3,0,11.5-2.1,15.5-6.3c4.1-4.2,6-9.9,6-17c0-6.8-1.9-12.2-5.6-16.1
	c-3.7-4-8.7-6-14.9-6c-5.9,0-11.2,1.5-15.8,4.3V459.8z M125.2,457.2v26.6h28.7v-26.6h10.2v61.4h-10.2v-25.8h-28.7v25.8h-10.3v-61.4
	H125.2z"/>
</svg>
