<?xml version="1.0" encoding="utf-8"?>
<!-- Generator: Adobe Illustrator 23.0.4, SVG Export Plug-In . SVG Version: 6.00 Build 0)  -->
<svg version="1.1" id="Layer_1" xmlns="http://www.w3.org/2000/svg" xmlns:xlink="http://www.w3.org/1999/xlink" x="0px" y="0px"
	 viewBox="0 0 1000 328.6" style="enable-background:new 0 0 1000 328.6;" xml:space="preserve">
<style type="text/css">
	.st0{display:none;fill:#4285F4;}
	.st1{display:none;fill:#EA4335;}
	.st2{display:none;fill:#FBBC05;}
	.st3{display:none;fill:#34A853;}
	.st4{fill:#EC3438;}
	.st5{fill:#373535;}
	.st6{fill:#FEFEFE;}
</style>
<path class="st0" d="M246.1,116.2H129.5v34.6h82.7c-4.1,48.5-44.4,69.2-82.5,69.2c-48.7,0-91.3-38.3-91.3-92.1
	c0-52.4,40.5-92.7,91.4-92.7c39.2,0,62.3,25,62.3,25l24.2-25.1c0,0-31.1-34.6-87.8-34.6C56.3,0.5,0.5,61.4,0.5,127.3
	c0,64.5,52.5,127.4,129.9,127.4c68,0,117.8-46.6,117.8-115.5C248.2,124.6,246.1,116.2,246.1,116.2L246.1,116.2z"/>
<path class="st1" d="M341.6,91.1c-47.8,0-82.1,37.4-82.1,81c0,44.3,33.2,82.3,82.7,82.3c44.7,0,81.4-34.2,81.4-81.4
	C423.6,119,380.9,91.1,341.6,91.1L341.6,91.1z M342.1,123.2c23.5,0,45.8,19,45.8,49.7c0,30-22.2,49.6-45.9,49.6
	c-26.1,0-46.6-20.9-46.6-49.8C295.3,144.3,315.6,123.2,342.1,123.2L342.1,123.2z"/>
<path class="st2" d="M520.2,91.1c-47.8,0-82.1,37.4-82.1,81c0,44.3,33.2,82.3,82.7,82.3c44.7,0,81.4-34.2,81.4-81.4
	C602.1,119,559.5,91.1,520.2,91.1L520.2,91.1z M520.7,123.2c23.5,0,45.8,19,45.8,49.7c0,30-22.2,49.6-45.9,49.6
	c-26.1,0-46.6-20.9-46.6-49.8C473.9,144.3,494.2,123.2,520.7,123.2L520.7,123.2z"/>
<path class="st0" d="M695.3,91.2c-43.9,0-78.4,38.5-78.4,81.6c0,49.2,40,81.8,77.7,81.8c23.3,0,35.7-9.2,44.8-19.8v16.1
	c0,28.2-17.1,45.1-42.9,45.1c-25,0-37.5-18.5-41.8-29.1L623.2,280c11.1,23.5,33.6,48.1,73.5,48.1c43.7,0,76.9-27.5,76.9-85.2V96.1
	h-34.2V110C728.8,98.6,714.5,91.2,695.3,91.2L695.3,91.2z M698.5,123.2c21.5,0,43.6,18.4,43.6,49.8c0,31.9-22.1,49.5-44.1,49.5
	c-23.4,0-45.2-19-45.2-49.2C652.9,141.9,675.5,123.2,698.5,123.2L698.5,123.2z"/>
<path class="st1" d="M925.9,91c-41.4,0-76.2,33-76.2,81.6c0,51.4,38.8,82,80.2,82c34.6,0,55.8-18.9,68.4-35.8l-28.2-18.8
	c-7.3,11.4-19.6,22.5-40,22.5c-23,0-33.5-12.6-40.1-24.8l109.5-45.4l-5.7-13.3C983.2,112.8,958.6,91,925.9,91L925.9,91z
	 M927.3,122.4c14.9,0,25.7,7.9,30.2,17.4l-73.1,30.6C881.2,146.8,903.7,122.4,927.3,122.4L927.3,122.4z"/>
<path class="st3" d="M797.5,249.7h36V8.9h-36V249.7z"/>
<g>
	<path class="st4" d="M771.9,164.3c0,84.3-68.4,152.7-152.7,152.7s-152.7-68.4-152.7-152.7c0-84.3,68.4-152.7,152.7-152.7
		S771.9,79.9,771.9,164.3z"/>
	<path class="st5" d="M308.1,231.5h-7.5c-2.3,0-3.7-1.2-4.6-2.6c-1.2-2-2.9-2-4-1.2c-5.2,3.2-13.5,6.6-25,6.6
		c-28.5,0-47.4-21.8-47.4-46.6c0-24.7,18.9-46.5,47.4-46.5c7.5,0,15.2,1.7,21.3,4.6c2.3,1.1,4-0.6,4-3.5c0-12.9-9.2-26.1-25.3-26.1
		c-10,0-18.1,2.9-23.9,6c-3.7,2-6,0.6-8.1-2.9l-3.7-6.6c-2-3.7,0.6-7.2,3.2-8.6c9.2-5.2,19.8-8.3,32.5-8.3
		c28.5,0,47.4,21.8,47.4,46.5v82.8C314.4,229.2,312.1,231.5,308.1,231.5z M267,161.7c-16.1,0-25.3,13.2-25.3,26.1
		c0,12.9,9.2,26.1,25.3,26.1c16.1,0,25.3-13.2,25.3-26.1C292.3,174.9,283,161.7,267,161.7z"/>
	<path class="st5" d="M421.8,234.3c-28.5,0-47.4-21.8-47.4-46.6V124c0-4-2.3-6.3-6.3-6.3h-6.3c-4,0-6.3-2.3-6.3-6.3v-6.3
		c0-4,2.3-6.3,6.3-6.3h6.3c4,0,6.3-2.3,6.3-6.3V67.1c0-4,2.3-6.3,6.3-6.3h9.5c4,0,6.3,2.3,6.3,6.3v25.3c0,4,2.3,6.3,6.3,6.3h31.6
		c4,0,6.3,2.3,6.3,6.3v6.3c0,4-2.3,6.3-6.3,6.3h-31.6c-4,0-6.3,2.3-6.3,6.3v63.8c0,12.9,9.2,26.1,25.3,26.1c8.6,0,13.5-3.7,17.5-7.2
		c4-3.4,6.9-3.7,10.6-1.1l5.7,4c3.2,2.3,3.4,6.3,1.2,8.9C449.7,227.2,437.9,234.3,421.8,234.3z"/>
	<path class="st6" d="M551.2,234.3c-28.4,0-47.4-21.8-47.4-46.6v-45.4c0-24.7,19-46.5,47.4-46.5c28.5,0,47.4,21.8,47.4,46.5v45.4
		C598.6,212.5,579.6,234.3,551.2,234.3z M576.5,142.4c0-12.9-9.2-26.1-25.3-26.1c-16.1,0-25.3,13.2-25.3,26.1v45.4
		c0,12.9,9.2,26.1,25.3,26.1c16.1,0,25.3-13.2,25.3-26.1V142.4z"/>
	<path class="st6" d="M723.5,231.5H714c-4,0-6.3-2.3-6.3-6.3v-82.8c0-12.9-9.2-26.1-25.3-26.1c-16.1,0-25.3,13.2-25.3,26.1v82.8
		c0,4-2.3,6.3-6.3,6.3h-9.5c-4,0-6.3-2.3-6.3-6.3V105.1c0-4,2.3-6.3,6.3-6.3h7.5c2.3,0,3.7,1.1,4.6,2.6c1.1,2,2.9,2,4,1.1
		c5.2-3.2,13.5-6.6,25-6.6c28.4,0,47.4,21.8,47.4,46.5v82.8C729.8,229.2,727.5,231.5,723.5,231.5z"/>
</g>
</svg>
