<?xml version="1.0" encoding="utf-8"?>
<!-- Generator: Adobe Illustrator 19.2.1, SVG Export Plug-In . SVG Version: 6.00 Build 0)  -->
<svg version="1.1" id="layer" xmlns="http://www.w3.org/2000/svg" xmlns:xlink="http://www.w3.org/1999/xlink" x="0px" y="0px"
	 viewBox="0 0 652 652" style="enable-background:new 0 0 652 652;" xml:space="preserve">
<style type="text/css">
	.st0{fill:#007A33;}
</style>
<g id="Holzher_white_logo_for_cs">
	<g id="kelly-services-copy" transform="translate(0.000000, 5.000000)">
		<path id="Shape" class="st0" d="M37.7,457.1c0.5,6.5,5.1,10.3,14.3,10.3s12.8-4.3,12.8-8.2c0-4.3-2.5-6-8.2-6.5l-10.7-1.6
			C32.6,449,28,443,28,435.9c0-12.5,11.2-17.4,23-17.4c14.8,0,23,6.5,23,17.4H62.7c-0.5-7.1-5.1-9.8-12.8-9.8
			c-5.1,0-10.2,2.7-10.2,7.6c0,4.4,3.1,6,7.7,6.5l14.3,2.2c12.2,2.2,14.8,9.8,14.8,15.2c0,10.9-9.2,18-26,18c-14.8,0-24-7.1-24-18.5
			H37.7z"/>
		<polygon id="Shape_1_" class="st0" points="141.6,431 111.6,431 111.6,443.4 140.5,443.4 140.5,452 111.6,452 111.6,467 
			143.2,467 143.2,475.6 99.8,475.6 99.8,421.9 141.6,421.9 		"/>
		<path id="Shape_2_" class="st0" d="M218.2,466.5c-0.5-10.2-1.1-15.6-13.5-16.1c8.1-0.5,14.6-4.8,14.6-14
			c0-10.7-8.6-14.5-20.5-14.5h-32.3v53.8h12.4v-20.9h12.4c11.9,0,14,2.1,14.6,12.4c0.5,3.2,0.5,7,1.1,8.6h12.9
			C219.3,473.5,218.8,470.8,218.2,466.5z M194,446.1h-15.1v-15h15.6c6.5,0,12.4,0.5,12.4,7C206.9,444.4,201.5,446.1,194,446.1z"/>
		<polygon id="Shape_3_" class="st0" points="249.8,421.9 269,464.3 287.6,421.9 299.8,421.9 274.8,475.6 261.5,475.6 236.5,421.9 
					"/>
		<rect id="Rectangle-path" x="319.8" y="421.9" class="st0" width="13.3" height="53.8"/>
		<path id="Shape_4_" class="st0" d="M399.9,437c0-6.5-7.4-9.8-13.8-9.8c-7.4,0-17.5,4.3-17.5,19.6c0,15.2,10.1,19.6,17.5,19.6
			c9.5,0,13.8-5.5,14.8-9.8h12.2c-1.1,14.7-14.3,19-28.1,19c-17.5,0-28.6-9.8-28.6-28.8c0-18,11.1-28.3,29.7-28.3
			c11.1,0,25.4,3.8,26.5,18.5L399.9,437z"/>
		<polygon id="Shape_5_" class="st0" points="475.4,431 444.9,431 444.9,443.4 474.4,443.4 474.4,452 444.9,452 444.9,467 
			476.5,467 476.5,475.6 433.2,475.6 433.2,421.9 475.4,421.9 		"/>
		<path id="Shape_6_" class="st0" d="M508.9,457.1c0.5,6.5,5.4,10.3,14.5,10.3c10.2,0,14-4.3,14-8.2c0-4.3-2.7-6-9.1-6.5l-10.8-1.6
			c-14-2.2-18.8-8.2-18.8-15.2c0-12.5,11.3-17.4,24.2-17.4c15.6,0,23.7,6.5,24.2,17.4h-11.9c-0.5-7.1-5.4-9.8-13.5-9.8
			c-5.4,0-10.8,2.7-10.8,7.6c0,4.4,3.2,6,8.1,6.5l15.1,2.2c12.9,2.2,15.6,9.8,15.6,15.2c0,10.9-9.7,18-28,18
			c-15.1,0-25.3-7.1-25.3-18.5H508.9z"/>
		<path id="Shape_7_" class="st0" d="M70.1,257c0.5-34.8,1.6-70.6,2.6-90.7H26.5c2.6,35.3,1,175.6,0,205.1h46.7
			c-1-13.7-4.1-54.3-3.6-98.1l52.4,88.6c3.1,5.8,9.9,9.5,16.1,9.5h45.1C163.5,351.9,111,263.4,111,263.4s55.5-82.8,72.1-97H138
			c-6.2,0-12.5,3.7-16.1,9L70.1,257z"/>
		<path id="Shape_8_" class="st0" d="M539.4,278.6c-16.2,40.1-30.3,79.6-38.6,92.8h34.9c12,0,15.7-7.4,17.8-13.7
			c18.8-49,64.2-177.7,73.1-191.3h-34.9c-13.6,0-16.7,10.5-20.9,20.6c-7.8,20.6-16.7,50.6-28.2,80.1c-7.3-22.7-13.6-46.9-23-80.1
			c-3.1-10-5.2-21.1-22.5-20.6h-33.9c10.4,14.8,17.8,51.1,36,100.2c2.6,5.3,5.2,11.6,17.8,11.6L539.4,278.6z"/>
		<path id="Shape_9_" class="st0" d="M232.1,197.4c-1,21.1-0.5,50.6-0.5,74.3l7.9-15.8c1.6-3.2,4.2-6.3,10-6.3h41.9
			c-3.1,6.9-10.5,21.6-10.5,21.6c-3.1,4.7-7.9,5.3-12,5.3h-37.2c-0.5,24.8-0.5,44.3-0.5,62.2c0.5,4.7,3.1,8.4,7.9,8.4h67.6l-12,24.3
			H187c2.6-28.5,2.6-172.4-0.5-205.1h106.4c0,0,8.4,19.5,10,21.6h-63.4c-3.1,0-7.9,2.6-7.9,9L232.1,197.4z"/>
		<path id="Shape_10_" class="st0" d="M403.2,347.7H358c-4.7,0-6.8-3.2-7.3-8.4v-69c0.5-26.9,1.6-59.6,2.6-81.7
			c0.5-6.9,0.5-22.1,0.5-22.1h-47.3c3.1,32.7,3.1,176.6,1,205.1h83.7C391.2,371.4,401.1,351.9,403.2,347.7z"/>
		<path id="Shape_11_" class="st0" d="M503.2,347.7H458c-5.2,0-6.8-3.2-7.3-8.4v-62.7l0.5-6.3c0-26.9,1.6-59.6,2.1-81.7
			c0.5-6.9,0.5-22.1,0.5-22.1h-47.3c3.1,32.7,3.6,176.6,1,205.1h84.2C491.8,371.4,501.1,351.9,503.2,347.7z"/>
	</g>
</g>
</svg>
