<?xml version="1.0" encoding="utf-8"?>
<!-- Generator: Adobe Illustrator 23.0.4, SVG Export Plug-In . SVG Version: 6.00 Build 0)  -->
<svg version="1.1" id="Layer_1" xmlns="http://www.w3.org/2000/svg" xmlns:xlink="http://www.w3.org/1999/xlink" x="0px" y="0px"
	 viewBox="0 0 2423.7 962.6" style="enable-background:new 0 0 2423.7 962.6;" xml:space="preserve">
<style type="text/css">
	.st0{display:none;}
	.st1{display:inline;}
	.st2{fill:#FFFFFF;}
	.st3{fill:none;stroke:#E29A10;stroke-width:15;stroke-miterlimit:10;}
	.st4{fill:#020203;}
	.st5{fill:#F59D26;}
	.st6{fill:#FCDACD;}
	.st7{fill:#8FC3EB;}
	.st8{fill:#664E9B;}
	.st9{fill:#3C73B9;}
</style>
<image style="display:none;overflow:visible;enable-background:new    ;" width="597" height="597" xlink:href="F088F15EE9B64976.jpg"  transform="matrix(1 0 0 1 1378.183 472.8586)">
</image>
<g class="st0">
	
		<image style="display:inline;overflow:visible;opacity:0.3;enable-background:new    ;" width="2371" height="2371" xlink:href="F088F15EE9B6497A.png"  transform="matrix(0.2396 0 0 0.2396 1396.259 488.3017)">
	</image>
	<g class="st1">
		<circle class="st2" cx="1677.3" cy="769.6" r="261.4"/>
		<circle class="st3" cx="1677.3" cy="769.6" r="261.4"/>
	</g>
</g>
<g>
	<g>
		<path class="st4" d="M1976.6,100.4c-19.5,11.7-83.4,55.6-104,79.5s-37.8,46.7-45,40.6c-7.8-6.1-25.6-17.2-45.6-23.4
			s-30-3.9-25-1.1s39.5,11.7,46.7,16.1c6.7,4.4,19.5,8.9,7.8,9.5c-11.7,0.6-59.5,16.7-69.5,31.7c0,0,70.6-35,82.3-21.7
			c11.7,13.3,8.9,57.3,10,73.4c1.1,16.1-0.6,26.1-10.6,22.2c-10-3.3-50.6-16.1-49.5,26.7c1.1,42.8,22.8,61.2,38.4,61.2
			c15,0,33.9-9.5,32.8,5c-0.6,15,3.3,76.2-5.6,82.3c-8.9,6.7-71.2,37.3-88.4,45c-17.8,7.2-22.2,12.8-11.1,21.7
			c11.1,8.9,46.7,24.5,33.9,35c-12.2,10.6-28.9,22.8-22.2,24.5s11.1-1.7,28.4,0c17.2,1.7,34.5-1.7,31.1,11.1
			c-3.3,12.2-1.1,20,3.9,24.5c5,4.4-5.6,2.8-0.6,17.2s16.1,22.2,30.6,23.9c14.5,1.1,11.7,6.1,12.8,18.3c1.1,12.2,0,18.3,19.5,20
			c19.5,1.1,45-1.7,52.3,2.2c7.2,3.9,7.2,4.4,5.6,13.3c-1.7,8.3-10.6,52.8-41.1,82.3c-30.6,29.5-91.2,78.4-56.7,66.2
			c35-12.2,147.3-41.7,164-43.4c16.7-1.7,13.3-8.3,21.1-22.2c7.8-14.5,26.1-37.8,26.7-18.3s-6.1,38.9,17.2,40
			c23.4,1.1,55,1.1,66.7,2.8c11.7,1.7,11.7-0.6,10-15c-1.7-14.5-0.6-40,8.9-25.6c9.5,15,12.2,25.6,21.7,40
			c8.9,15,11.7,16.7,34.5,21.1c22.8,4.4,104,26.1,119.5,27.2c15.6,1.1,18.9,2.8,12.2-4.4s-53.4-57.8-64.5-77.8
			c-11.1-20-40.6-71.2-16.1-68.9c24.5,2.2,61.7,5.6,70.6,5.6c8.9,0,8.9-1.7,6.7-13.9c-2.2-12.2-4.4-18.9-4.4-27.8
			c0-8.9-4.4-11.1,5.6-10c10,1.7,32.8,1.1,41.7-12.8c8.3-13.3,15.6-35.6,3.3-44.5c-12.2-8.9-22.2-12.2-22.2-12.2s13.9-3.9,24.5-8.3
			c10.6-4.4,23.4-6.1,13.9-10c-8.9-4.4-21.7-14.5-12.2-20.6c8.9-6.1,33.4-19.5,24.5-24.5c-8.9-5-73.9-35-73.9-35
			s13.9-18.9,21.7-32.2c7.8-13.3,13.3-68.4,5-85.6c0,0,30.6-31.1,36.1-55.6c5.6-24.5,8.3-57.8,7.8-63.9c-0.6-6.1-2.2-7.8-10.6-7.2
			c-7.8,0.6-55,5-65.6,5c-10.6,0.6-11.1-2.2-15-12.8c-3.9-10.6-25-51.2-27.8-66.7s-14.5-34.5-14.5-34.5s35.6-16.1,46.1-35
			c10.6-18.9,17.8-46.7-5.6-69.5c-23.4-22.8-118.4-59.5-197.9-40C2037.7,70.4,1987.7,93.8,1976.6,100.4"/>
		<path class="st5" d="M2304.6,111.6c3.9,6.1,17.2,21.1-6.1,47.3c-15.6,17.2-26.7,25.6-85.1,33.4c-33.9,4.4-46.7-2.8-46.7-2.8
			s6.1-38.4-34.5-57.3c-38.4-17.8-32.2,24.5-21.7,38.9c12.2,17.8,41.7,26.7,41.7,26.7s-6.1,24.5-55,25.6
			c-49.5,1.7-53.4-3.9-53.4-3.9s10-22.2-6.7-42.3c-24.5-29.5-55-36.7-66.2-16.1c-12.2,22.2,23.9,58.4,52.8,64.5
			c0,0,2.2,22.8-66.2,19.5c-68.4-3.3-78.4-7.8-98.4-13.3c-17.8-5-10-6.7,26.1-44.5c33.4-34.5,111.8-89,181.3-107.3
			C2218.4,41.5,2292.9,92.7,2304.6,111.6"/>
		<path class="st5" d="M2154.5,187.7c0,0-2.2-21.1-11.1-31.1c-8.3-9.5-27.2-25-30-8.3C2111.1,164.9,2132.8,186.1,2154.5,187.7"/>
		<path class="st5" d="M2029.9,217.2c0,0,11.1-18.9-2.8-34.5c-12.2-13.3-26.1-23.9-41.1-20c-14.5,3.9-1.7,30.6,11.7,38.4
			C2013.8,210.5,2029.9,217.2,2029.9,217.2"/>
		<path class="st6" d="M2280.7,251.1c0,0-10-26.1-12.8-36.7c-4.4-17.2-2.8-18.9-20.6-13.3c-17.8,5-37.3,10.6-57.3,7.8
			c-20-2.8-27.8-5-27.8-5s-6.7,16.1-28.9,25c-25,10-43.9,11.7-69.5,7.2c-27.2-5-22.2-6.7-33.9,3.3c-11.7,10-31.7,24.5-86.7,21.1
			c-61.2-3.9-65.6-6.7-80.1-12.8c-14.5-5.6-20.6-7.2-19.5,5.6c0.6,10.6,3.9,73.9,6.1,73.9c2.2,0,177.9-3.3,443.7-16.1
			C2312.9,311.2,2301.2,302.3,2280.7,251.1"/>
		<path class="st6" d="M2220.1,398.5c0,0,4.4-3.9,7.8-8.9c3.3-5,1.1-4.4-18.3-4.4c-36.7-0.6-37.8-5-41.1,5
			c-1.7,5.6-12.2,32.2-20,37.3c-10.6,6.7-8.3,12.8,0.6,20c7.8,6.1,72.8,50,62.3,32.2c-11.7-18.9-23.4-39.5-18.3-47.3
			C2197.8,424.6,2220.1,398.5,2220.1,398.5"/>
		<path class="st6" d="M2188.9,651.4c0,0-316.9-146.2-327.5-152.3c-10.6-5.6-5-23.9-6.1-53.9c-1.1-26.1,2.8-56.2-6.1-48.4
			c-12.8,11.1-51.2,10-60-9.5c-10-21.7-16.7-59.5,23.9-55c9.5,1.1,21.1,15,30.6,18.9c8.3,3.3,3.9,0.6,4.4-2.8
			c1.7-7.2,3.9-2.8,39.5-1.7c22.8,0.6,22.8,16.1,30.6,38.9c6.7,18.9,27.8,56.2,63.4,74.5c82.8,43.9,125.1-1.1,125.1-1.1
			s18.3,38.4,30,51.7c11.7,13.3,28.4,27.2,45.6,31.1c16.1,3.3,8.3,7.2,4.4,10.6c-2.2,1.7-5,12.8,6.1,5
			c20.6-15.6,18.3-17.8,12.2-18.9c-5.6-1.1-23.4-4.4-31.1-10c-7.8-5.6-8.3-4.4,0-20c8.3-16.1,6.7-30.6,23.4-20.6s51.7,18.9,39.5,6.7
			c-15-15-34.5-52.8-34.5-57.8c-0.6-5,4.4,3.9,26.7,16.1c22.2,12.2,40.6,25.6,87.3,5.6c40-17.2,37.3-7.8,37.8,7.8
			c1.1,21.1,1.7,49.5-44.5,92.3C2267.9,595.8,2206.2,662,2188.9,651.4"/>
		<path class="st7" d="M2363,328.4c-18.9,1.1-50.6,3.3-70.6,4.4c-40,1.7-30.6,1.7-38.4,15.6c-7.2,12.8-47.8,15-62.8,11.1
			c0,0-15,15.6,12.2,14.5c34.5-1.1,53.4-1.1,50,3.3c-18.9,27.8-38.4,36.1-30,43.4c31.1,26.1,132.3,38.9,155.1-54.5
			C2388.5,325.6,2384.6,327.3,2363,328.4"/>
		<path class="st7" d="M2141.1,356.2c6.7-20-19.5-10-52.3-12.2c-52.3-3.3-45-0.6-49.5,12.2c-4.4,13.3-14.5,22.8-42.8,15
			c-41.7-11.1-23.4-26.1-46.7-22.2c-13.3,2.2-14.5,2.8-5,27.8c8.3,22.2,43.4,81.2,119,68.9C2127.8,435.7,2133.9,378.4,2141.1,356.2"
			/>
		<path class="st8" d="M2336.8,642c0,0-6.7,2.2-12.8,4.4c-6.1,2.2-7.2,3.3-10.6-6.7c-3.3-10-12.8-36.7-13.9-40.6
			c-1.1-3.9-3.3-10.6,6.1-17.2c8.9-6.1,12.2,6.1,25,12.8c12.8,6.1,38.9,27.2,44.5,30c5.6,3.3,5.6,5-0.6,6.7
			C2368,633.6,2336.8,642,2336.8,642"/>
		<path class="st8" d="M2376.9,679.8c0,0-2.8-8.9-5-11.7c-2.2-2.8-6.1-8.9-19.5-9.5c-13.9-0.6-22.2-1.7-31.1,4.4
			c-8.9,6.1-1.1,7.8,1.7,8.3s4.4,2.8,6.7,5c2.2,2.2,9.5,0.6,17.2,2.8s8.9,8.3-5,8.9c-13.9,0-17.2,0.6-17.2,0.6s2.2,14.5,5.6,18.9
			C2330.2,707,2381.9,714.8,2376.9,679.8"/>
		<path class="st8" d="M1901.5,652c0,0-10.6-0.6-16.1,13.9c-11.7,30,34.5,23.9,47.8-2.2c17.2-33.4-25.6-61.7-38.9-71.7
			c-13.9-10.6-55.6-36.7-55.6-36.7s-22.8,21.7-33.9,32.2c-11.7,10.6-35,28.9-28.9,28.9c6.1,0.6,57.3,2.8,62.8,6.7
			c6.1,3.9-9.5,12.2-16.1,17.2c-6.7,5-8.3,10.6-2.8,12.2c5.6,1.7-3.9,8.9,4.4,10.6c8.3,1.7,40,3.3,41.7-1.7c6.7-5,8.3,2.8,18.9-10
			c10.6-12.2,10-17.2,7.8-23.9c-2.2-6.7-7.2-8.9-12.8-10.6s-9.5,2.2-12.8,3.3c-3.3,1.1-5.6-1.1-5.6-2.2c0.6-1.7,8.9-6.1,12.2-7.2
			c3.9-1.1,12.2-2.2,17.8,0.6s22.8,21.7,25,25c2.2,3.3,4.4,9.5,3.9,12.8c-0.6,3.3-3.3,9.5-5,12.2c-1.7,2.8-8.3,5.6-10.6,1.7
			c-3.3-5,7.2-12.8,7.2-15.6c0.6-7.2-5-8.3-7.2-7.2C1902.6,643.1,1901.5,652,1901.5,652"/>
		<path class="st8" d="M1876.5,685.3c0,0-5-7.2-6.7-9.5c-2.8-3.3-5.6-2.8-15-1.1s-22.2,0.6-27.8,1.1c-5.6,1.1-7.2,3.3,0,10
			c6.7,7.2,21.1,13.3,43.4,7.2C1881.5,689.8,1876.5,685.3,1876.5,685.3"/>
		<path class="st2" d="M2287.3,599.2c0,0,21.7,120.1,25,132.3c3.3,12.2,8.3,22.8-2.8,22.2c-11.1-0.6-289.7-21.7-310.8-20.6
			c-17.8,1.1-11.7-10-17.2-47.8c-2.8-21.1-5-82.8-5.6-94.5c0-11.7-7.8-25,11.1-15.6c18.9,9.5,209.1,94,209.1,94
			S2242.3,635.3,2287.3,599.2"/>
		<path class="st2" d="M1966.5,568c0,0,7.2,96.7,8.3,110.6c0.6,14.5,8.3,53.9,0,53.4c-5.6-0.6-69.5-1.1-94.5-2.2
			c-6.7,0-8.3-3.9-8.3-6.1c-2.2-18.9-9.5-19.5,35-30.6c12.2-2.8,31.1-18.9,36.7-31.7c7.2-16.7-8.3-45-16.1-52.8
			c-13.3-13.9-72.8-56.7-84-62.3c-8.9-5-8.3,1.1-12.2-1.1c-3.3-1.7-14.5-10.6-10.6-5c3.3,5.6,6.7,9.5,2.2,13.9
			c-4.4,4.4-28.4,35-38.4,30c-10-4.4-25-15.6-33.4-19.5c-8.3-3.9-10.6-5.6,13.9-15c19.5-7.8,79-42.8,90.1-35.6
			C1874.8,526.9,1966.5,568,1966.5,568"/>
		<path class="st2" d="M2174.5,474.1c0,0-13.3-7.2-17.8-11.1c-5-3.9-8.3,1.1-10,4.4c-1.7,3.3-17.2,24.5-13.3,29.5
			c9.5,10.6,25,32.8,30,18.9c5.6-13.9,13.3-27.8,15-32.2C2179.5,479.6,2178.9,476.8,2174.5,474.1"/>
		<path class="st2" d="M2142.8,452.9c0,0-8.9-11.1-12.8-9.5c-6.1,2.8-18.9,12.2-13.3,20c7.8,12.2,8.9,33.9,18.9,12.8
			C2143.9,456.8,2150,460.2,2142.8,452.9"/>
		<path class="st2" d="M2385.8,586.4c0,0-37.3-16.7-43.9-20.6c-6.7-3.9-16.7-7.2-21.1-1.7c-4.4,5.6-8.3,8.9,2.2,15.6
			c10.6,6.7,37.3,25.6,42.8,28.4c5.6,2.8,6.7,1.7,17.2-7.8C2393.5,590.8,2396.9,591.4,2385.8,586.4"/>
	</g>
	<g>
		<g>
			<g>
				<path class="st9" d="M45.6,64.3h44.5c19.5,0,38.4,5,53.4,18.9s24.5,36.7,24.5,71.7c0,34.5-10,57.3-24.5,71.2
					c-15,13.9-33.9,19.5-53.4,19.5v120.7H45.6V64.3z M89.5,200.5c13.3,0,22.2-2.2,27.2-9.5c5-6.7,6.1-17.8,6.1-34.5
					s-1.1-28.9-6.1-36.1c-5-7.2-13.3-10.6-27.2-10.6V200.5z"/>
				<path class="st9" d="M269.1,366.2l-22.8-127.3h-11.7v127.3h-44.5V64.3h44.5c52.8,0,75.6,30,75.6,87.3c0,30-7.8,57.3-24.5,68.4
					l28.4,146.2H269.1z M234.1,198.3c6.1,0,14.5-0.6,21.1-6.7s11.7-16.7,11.7-38.4c0-21.1-5.6-32.8-11.7-38.4
					c-6.7-5.6-15-6.1-21.1-6.1V198.3z"/>
				<path class="st9" d="M453.7,304.5c-0.6,12.2-2.8,23.4-7.2,32.8c-3.9,8.3-9.5,16.1-17.8,22.2c-8.3,6.7-19.5,10-33.9,10
					c-15,0-26.1-3.9-34.5-10c-8.3-6.1-13.3-13.9-17.2-22.2c-4.4-9.5-7.2-20.6-7.2-32.8V126.6c0.6-11.7,2.8-22.8,7.2-32.2
					c3.9-8.3,8.9-16.7,17.2-22.8s19.5-10,34.5-10c15,0,26.1,3.9,33.9,10c8.3,6.1,13.9,14.5,17.8,22.8c4.4,9.5,7.2,20.6,7.2,32.2
					V304.5z M409.2,126.6c0-8.3-1.7-13.9-5.6-18.9c-2.2-2.2-5.6-3.3-8.9-3.3c-7.8,0-11.7,5.6-13.3,11.1c-1.1,3.3-1.7,7.2-1.7,11.1
					v177.9c0,8.9,2.2,14.5,6.1,18.9c2.2,2.2,5,3.3,8.9,3.3c7.8,0,11.7-5,13.3-11.1c1.1-2.8,1.7-6.7,1.7-11.1V126.6H409.2z"/>
				<path class="st9" d="M554.9,172.7v-46.1c0-8.3-1.7-13.9-5.6-18.9c-2.2-2.2-5.6-3.3-8.9-3.3c-7.8,0-11.7,5.6-13.3,11.1
					c-1.1,3.3-1.7,7.2-1.7,11.1v181.8c0,8.9,2.2,14.5,6.1,18.9c2.2,2.2,5,3.3,8.9,3.3c7.8,0,11.7-5,13.3-11.1
					c1.1-2.8,1.7-6.7,1.7-11.1v-54.5h-17.8v-37.3h62.3v150.1h-27.2l-5.6-14.5c-8.3,10-20,17.8-34.5,17.8c-14.5,0-24.5-3.9-31.7-10
					c-7.2-6.1-12.2-13.9-15.6-22.2c-3.9-9.5-5.6-20.6-5-32.8V127.1c0.6-11.7,2.8-22.8,7.2-32.2c3.9-8.3,8.9-16.7,17.2-22.8
					c8.3-6.1,19.5-10,34.5-10c15,0,26.1,3.9,33.9,10c8.3,6.1,13.9,14.5,17.8,22.8c4.4,9.5,7.2,20.6,7.2,32.2v46.1h-43.4V172.7z"/>
				<path class="st9" d="M710.6,366.2l-22.8-127.3h-11.7v127.3h-44.5V64.3h44.5c52.8,0,75.6,30,75.6,87.3c0,30-7.8,57.3-24.5,68.4
					l28.4,146.2H710.6z M676.1,198.3c6.1,0,14.5-0.6,21.1-6.7c6.7-6.1,11.7-16.7,11.7-38.4c0-21.1-5.6-32.8-11.7-38.4
					c-6.7-5.6-15-6.1-21.1-6.1V198.3z"/>
				<path class="st9" d="M767.3,366.2l45.6-301.9h54.5l45.6,301.9h-43.4l-8.3-61.7h-42.8l-8.3,61.7H767.3z M842.9,162.7l-1.1-7.8
					h-2.2l-1.1,7.8l-12.8,95.1h30.6L842.9,162.7z"/>
				<path class="st9" d="M1006.9,366.2l-28.4-189.6l-1.7-12.8h-2.2v202.4h-41.1V64.3H988l26.1,137.9l2.2,16.1h0.6l2.2-16.1
					l26.1-137.9h54.5v301.9h-41.1V163.8h-2.2l-1.7,12.8l-28.4,189.6H1006.9z"/>
				<path class="st9" d="M1205.9,366.2l-28.4-189.6l-1.7-12.8h-2.8v202.4H1132V64.3h54.5l26.1,137.9l2.2,16.1h0.6l2.2-16.1
					l26.1-137.9h54.5v301.9h-41.1V163.8h-2.2l-1.7,12.8l-28.4,189.6H1205.9z"/>
				<path class="st9" d="M1331,64.3h101.2v45.6H1375v79.5h41.1v48.4H1375v82.8h57.3v45.6H1331V64.3z"/>
				<path class="st9" d="M1536.2,366.2l-22.8-127.3h-12.2v127.3h-44.5V64.3h44.5c52.8,0,75.6,30,75.6,87.3c0,30-7.8,57.3-24.5,68.4
					l28.4,146.2H1536.2z M1501.2,198.3c6.1,0,14.5-0.6,21.1-6.7c6.7-5.6,11.7-16.7,11.7-38.4c0-21.1-5.6-32.8-11.7-38.4
					c-6.7-5.6-15-6.1-21.1-6.1V198.3z"/>
				<path class="st9" d="M1679.1,145.5c0-10-0.6-21.1-3.3-29.5c-2.8-8.3-7.2-13.9-14.5-13.9c-11.7,0.6-15,12.2-15,30
					c0,10,4.4,21.1,11.1,32.2c6.7,11.7,15,23.4,23.9,36.1c10,15,20.6,30.6,28.4,46.1c7.8,15,13.3,30.6,13.3,47.3
					c0,20-3.3,38.9-12.8,52.8c-9.5,13.9-24.5,22.8-48.9,22.8c-28.4,0-44.5-10.6-53.4-27.2c-8.9-16.7-11.1-38.4-11.1-60.6l43.4-3.9
					c0,12.8,0.6,25.6,3.9,35c2.8,10,7.8,16.7,17.2,16.7c13.3,0,18.3-13.9,18.3-33.4c0-10-5-21.1-11.7-33.4
					c-3.9-5.6-7.2-11.7-11.7-18.3c-8.9-12.2-18.3-26.1-27.8-41.7c-10-15-17.2-30.6-21.7-46.7c-2.2-7.8-3.9-16.1-3.9-24.5
					c0-16.7,3.9-33.9,13.3-47.8c9.5-13.3,23.9-22.8,45-22.8c26.7-0.6,42.3,10.6,51.2,26.7c8.9,16.7,11.1,36.7,11.1,53.4
					L1679.1,145.5z"/>
			</g>
			<g>
				<path class="st9" d="M627.7,468.5h66.2c28.9,0,57.8,7.2,80.1,28.4c22.2,21.1,36.7,55,36.7,106.8c0,51.7-15,85.6-36.7,106.2
					c-22.2,21.1-51.2,29.5-80.1,29.5V920h-66.2V468.5z M694.4,672c20,0,33.4-3.9,40.6-13.9c7.2-10,9.5-26.7,9.5-51.7
					c0-25-1.7-42.8-9.5-53.9c-7.2-11.1-20-16.1-40.6-16.1V672z"/>
				<path class="st9" d="M825.6,920L894,468.5h81.2l68.4,451.5h-65.1l-12.2-92.3h-63.9L890.1,920H825.6z M938,615.3l-1.7-11.7h-3.9
					l-1.7,11.7l-18.9,142.3h45.6L938,615.3z"/>
				<path class="st9" d="M1074.2,920V468.5h52.3c61.7,0,94.5,12.2,112.3,46.7c17.2,34.5,19.5,91.2,19.5,179.6s-2.2,144.6-19.5,179
					c-17.8,34.5-51.2,46.7-112.3,46.7h-52.3V920z M1140.3,853.8c22.8,0,35.6-2.2,42.3-24.5c3.3-10.6,5.6-26.7,6.1-47.8
					c0.6-21.7,0.6-50.6,0.6-87.3s0-65.6-0.6-87.3c-0.6-21.1-3.3-36.7-6.1-47.8c-6.7-21.7-19.5-23.9-42.3-23.9V853.8z"/>
				<path class="st9" d="M1478.9,468.5v358.6c-0.6,18.3-4.4,35-11.1,48.9c-5.6,12.2-13.9,23.9-26.7,33.4
					c-12.2,10-28.9,15.6-51.2,15.6s-39.5-5.6-51.7-15.6c-12.2-9.5-20-21.1-25.6-33.4c-6.7-13.9-10.6-30.6-11.1-48.9V468.5h66.2
					v358.6c0,12.8,3.3,21.7,9.5,28.4c3.3,3.3,7.2,5,12.8,5c11.7,0,17.2-7.2,19.5-16.7c1.7-4.4,2.2-10,2.2-16.7V468.5H1478.9z"/>
				<path class="st9" d="M1509,920l68.4-451.5h81.2l68.4,451.5h-64.5l-12.2-92.3h-63.9L1574,920H1509z M1621.3,615.3l-1.7-11.7h-3.9
					l-1.7,11.7l-18.9,142.3h45.6L1621.3,615.3z"/>
			</g>
		</g>
	</g>
	<g>
		<path d="M40,54.3h44.5c19.5,0,38.4,5,53.4,18.9s24.5,36.7,24.5,71.7s-10,57.3-24.5,71.2c-15,13.9-33.9,19.5-53.4,19.5v120.7H40
			V54.3z M84.5,190c13.3,0,22.2-2.2,27.2-9.5c5-6.7,6.1-17.8,6.1-34.5s-1.1-28.9-6.1-36.1c-5-7.2-13.3-10.6-27.2-10.6V190z"/>
		<path d="M264.1,356.2l-22.8-127.3h-11.7v127.3h-44.5V54.3h44.5c52.8,0,75.6,30,75.6,87.3c0,30-7.8,57.3-24.5,68.4l28.4,146.2
			H264.1z M229.1,187.7c6.1,0,14.5-0.6,21.1-6.7c6.7-5.6,11.7-16.7,11.7-38.4c0-21.1-5.6-32.8-11.7-38.4c-6.7-5.6-15-6.1-21.1-6.1
			V187.7z"/>
		<path d="M448.1,293.9c-0.6,12.2-2.8,23.4-7.2,32.8c-3.9,8.3-9.5,16.1-17.8,22.2c-8.3,6.7-19.5,10-33.9,10c-15,0-26.1-3.9-34.5-10
			c-8.3-6.1-13.3-13.9-17.2-22.2c-4.4-9.5-7.2-20.6-7.2-32.8V116c0.6-11.7,2.8-22.8,7.2-32.2c3.9-8.3,8.9-16.7,17.2-22.8
			s19.5-10,34.5-10s26.1,3.9,33.9,10c8.3,6.1,13.9,14.5,17.8,22.8c4.4,9.5,7.2,20.6,7.2,32.2V293.9z M404.2,116
			c0-8.3-1.7-13.9-5.6-18.9c-2.2-2.2-5.6-3.3-8.9-3.3c-7.8,0-11.7,5.6-13.3,11.1c-1.1,3.3-1.7,7.2-1.7,11.1v177.9
			c0,8.9,2.2,14.5,6.1,18.9c2.2,2.2,5,3.3,8.9,3.3c7.8,0,11.7-5,13.3-11.1c1.1-2.8,1.7-6.7,1.7-11.1V116H404.2z"/>
		<path d="M549.3,162.7v-46.1c0-8.3-1.7-13.9-5.6-18.9c-2.2-2.2-5.6-3.3-8.9-3.3c-7.8,0-11.7,5.6-13.3,11.1
			c-1.1,3.3-1.7,7.2-1.7,11.1v181.8c0,8.9,2.2,14.5,6.1,18.9c2.2,2.2,5,3.3,8.9,3.3c7.8,0,11.7-5,13.3-11.1
			c1.1-2.8,1.7-6.7,1.7-11.1v-55.6h-17.8v-37.3h62.3v150.1h-26.1l-5.6-14.5c-8.3,10-20,17.8-34.5,17.8c-14.5,0-24.5-3.9-31.7-10
			c-7.2-6.1-12.2-13.9-15.6-22.2c-3.9-9.5-5.6-20.6-5-32.8V116c0.6-11.7,2.8-22.8,7.2-32.2c3.9-8.3,8.9-16.7,17.2-22.8
			s19.5-10,34.5-10c15,0,26.1,3.9,33.9,10c8.3,6.1,13.9,14.5,17.8,22.8c4.4,9.5,7.2,20.6,7.2,32.2v46.1h-44.5V162.7z"/>
		<path d="M705.6,356.2l-22.8-127.3h-11.7v127.3h-44.5V54.3h44.5c52.8,0,75.6,30,75.6,87.3c0,30-7.8,57.3-24.5,68.4l28.4,146.2
			H705.6z M670.5,187.7c6.1,0,14.5-0.6,21.1-6.7c6.7-5.6,11.7-16.7,11.7-38.4c0-21.1-5.6-32.8-11.7-38.4c-6.7-5.6-15-6.1-21.1-6.1
			V187.7z"/>
		<path d="M762.3,356.2l45.6-301.9h54.5l45.6,301.9h-43.4l-8.3-61.7h-42.8l-8.3,61.7H762.3z M837.3,152.1l-1.1-7.8H834l-1.1,7.8
			l-12.8,95.1h30.6L837.3,152.1z"/>
		<path d="M1001.9,356.2l-28.4-189.6l-1.7-12.8h-2.2v202.4h-41.1V54.3H983l26.1,137.9l2.2,16.1h0.6l2.2-16.1l26.1-137.9h54.5v301.9
			h-41.1V153.8h-2.2l-1.7,12.8l-28.4,189.6H1001.9z"/>
		<path d="M1200.4,356.2L1172,166.6l-1.7-12.8h-2.2v202.4H1127V54.3h54.5l26.1,137.9l2.2,16.1h0.6l2.2-16.1l26.1-137.9h54.5v301.9
			h-41.1V153.8h-2.2l-1.7,12.8l-28.4,189.6H1200.4z"/>
		<path d="M1325.5,54.3h101.2v45.6h-57.3v79.5h41.1v48.4h-41.1v82.8h57.3v45.6h-101.2V54.3z"/>
		<path d="M1531.2,356.2l-22.8-127.3h-11.7v127.3h-44.5V54.3h44.5c52.8,0,75.6,30,75.6,87.3c0,30-7.8,57.3-24.5,68.4l28.4,146.2
			H1531.2z M1496.2,187.7c6.1,0,14.5-0.6,21.1-6.7c6.7-5.6,11.7-16.7,11.7-38.4c0-21.1-5.6-32.8-11.7-38.4c-6.7-5.6-15-6.1-21.1-6.1
			V187.7z"/>
		<path d="M1673.5,134.9c0-10-0.6-21.1-3.3-29.5c-2.8-8.3-7.2-13.9-14.5-13.9c-11.7,0.6-15,12.2-15,30c0,10,4.4,21.1,11.1,32.2
			c6.7,11.7,15,23.4,23.9,36.1c10,15,20.6,30.6,28.4,46.1c7.8,15,13.3,30.6,13.3,47.3c0,20-3.3,38.9-12.8,52.8
			c-9.5,13.9-24.5,22.8-48.9,22.8c-28.4,0-44.5-10.6-53.4-27.2c-8.9-16.7-11.1-38.4-11.1-60.6l43.4-3.9c0,12.8,0.6,25.6,3.9,35
			c2.8,10,7.8,16.7,17.2,16.7c13.3,0,18.3-13.9,18.3-33.4c0-10-5-21.1-11.7-33.4c-3.9-5.6-7.2-11.7-11.7-18.3
			c-8.9-12.2-18.3-26.1-27.8-41.7c-10-15-17.2-30.6-21.7-46.7c-2.2-7.8-3.9-16.1-3.9-24.5c0-16.7,3.9-33.9,13.3-47.8
			c9.5-13.3,23.9-22.8,45-22.8c26.7-0.6,42.3,10.6,51.2,26.7c8.9,16.7,11.1,36.7,11.1,53.4L1673.5,134.9z"/>
	</g>
	<g>
		<path d="M622.7,457.9h66.2c28.9,0,57.8,7.2,80.1,28.4c22.2,21.1,36.7,55,36.7,106.8c0,51.7-15,85.6-36.7,106.2
			c-22.2,21.1-51.2,29.5-80.1,29.5V910h-66.2V457.9z M688.9,661.4c20,0,33.4-3.9,40.6-13.9c7.2-10,9.5-26.7,9.5-51.7
			c0-25-1.7-42.8-9.5-53.9c-7.2-11.1-20-16.1-40.6-16.1V661.4z"/>
		<path d="M820.6,910L889,458.5h81.2l68.4,451.5h-64.5l-12.2-92.3h-63.9L885.7,910H820.6z M933,604.7l-1.7-11.7h-3.9l-1.7,11.7
			l-18.9,142.3h45.6L933,604.7z"/>
		<path d="M1068.6,910V458.5h52.3c61.7,0,94.5,12.2,112.3,46.7c17.2,34.5,19.5,91.2,19.5,179.6s-2.2,144.6-19.5,179
			c-17.8,34.5-51.2,46.7-112.3,46.7h-52.3V910z M1135.3,843.2c22.8,0,35.6-2.2,42.3-24.5c3.3-10.6,5.6-26.7,6.1-47.8
			c0.6-21.7,0.6-50.6,0.6-87.3c0-36.7,0-65.6-0.6-87.3c-0.6-21.1-3.3-36.7-6.1-47.8c-6.7-21.7-19.5-23.9-42.3-23.9V843.2z"/>
		<path d="M1473.4,457.9v358.6c-0.6,18.3-4.4,35-11.1,48.9c-5.6,12.2-13.9,23.9-26.7,33.4c-12.2,10-28.9,15.6-51.2,15.6
			s-39.5-5.6-51.7-15.6c-12.2-9.5-20-21.1-25.6-33.4c-6.7-13.9-10.6-30.6-11.1-48.9V457.9h66.2v358.6c0,12.8,3.3,21.7,9.5,28.4
			c3.3,3.3,7.2,5,12.8,5c11.7,0,17.2-7.2,19.5-16.7c1.7-4.4,2.2-10,2.2-16.7V457.9H1473.4z"/>
		<path d="M1504,910l68.4-451.5h81.2l68.4,451.5h-65.1l-12.2-92.3h-63.9l-12.2,92.3H1504z M1616.3,604.7l-1.7-11.7h-3.9l-1.7,11.7
			l-18.9,142.3h45.6L1616.3,604.7z"/>
	</g>
	<g>
		<path class="st9" d="M79.5,739.8c-1.7,1.1-3.9,0.6-5.6-1.7s-1.7-4.4-0.6-6.1c8.9-8.9,21.1-19.5,36.7-31.1
			c15.6-11.7,31.1-21.1,46.7-28.9c5,0,7.8,2.8,7.8,8.9c-8.3,15-16.7,31.1-25,48.4c-8.3,17.2-15,35-21.1,51.7
			c-6.1,17.2-11.1,33.9-15,49.5c-3.9,16.1-5.6,28.9-5.6,39.5c0,13.3,4.4,20.6,13.3,20.6c7.2,0,13.9-2.8,21.1-9.5
			c6.7-6.1,14.5-14.5,23.9-25c1.1-1.1,2.8-1.1,5,1.1c1.7,1.7,2.2,4.4,1.1,6.7c-11.7,14.5-23.9,27.2-37.3,38.9
			C111.8,914.4,99.5,920,87.8,920c-16.7,0-25-10.6-25-32.2c0-12.2,2.2-27.2,6.1-43.9c4.4-17.2,9.5-34.5,16.1-51.7
			c6.7-17.2,13.9-34.5,21.7-50.6c8.3-16.1,16.1-30,23.9-41.7c-7.2,5-16.1,11.7-26.7,20C92.9,728.2,85.1,734.8,79.5,739.8z
			 M167.4,630.3c-2.2,2.2-3.9,2.2-5.6,0.6c-1.7-1.7-2.8-3.9-3.3-6.7s-1.1-6.1-1.1-10c0-3.9,1.1-7.2,2.8-9.5
			c16.7-23.4,40.6-48.4,71.2-74.5c1.7-0.6,3.9,0,5.6,1.7c1.7,1.7,2.2,3.3,1.1,4.4c-13.3,12.2-26.7,27.2-38.9,43.9
			C186.8,596.4,176.2,613.6,167.4,630.3z"/>
		<path class="st9" d="M447.6,858.8c2.2-1.1,3.9-1.1,5.6,0c2.2,1.1,2.8,3.3,2.2,6.1c-11.1,15-23.4,27.8-36.7,39.5
			c-13.3,11.1-25.6,17.2-37.3,17.2c-20,0-30-12.8-30-38.9c0-22.2,3.9-46.7,11.7-73.4c7.8-26.7,18.3-53.9,32.2-81.2
			c2.8-4.4,3.9-8.9,3.9-13.3c0-7.2-3.3-10.6-9.5-10.6c-23.9,0-50.6,16.7-79,49.5c-28.9,32.8-55.6,85.1-80.1,155.1
			c-1.1,3.9-5,7.2-10.6,9.5c-5.6,2.2-11.1,3.3-16.7,3.3c-7.2,0-9.5-2.8-7.8-8.9c11.1-27.8,22.2-59.5,34.5-94
			c12.2-35,22.2-69.5,31.7-104c2.8-12.2,0.6-18.3-6.7-18.3c-6.7,0-12.8,3.3-19.5,9.5c-6.7,6.7-13.3,15-20.6,25
			c-1.1,1.1-2.8,1.1-4.4-1.1c-1.7-2.2-2.2-3.9-1.7-5.6c7.2-11.1,16.7-22.2,28.9-33.9c12.2-11.7,25.6-17.2,40-17.2
			c16.1,0,21.7,11.1,16.7,32.8c-2.8,14.5-6.1,29.5-10.6,45c-4.4,16.1-9.5,31.7-14.5,47.3c8.9-17.2,20-33.9,32.2-49.5
			s25-28.9,38.4-40c13.3-11.1,26.7-20,40-26.1c13.3-6.7,25.6-9.5,37.3-9.5c7.8,0,13.9,1.7,17.8,5.6c4.4,3.9,6.1,8.3,6.1,13.3
			c0,8.3-1.7,16.7-5.6,25c-13.3,24.5-25,50.6-34.5,77.3c-9.5,26.7-13.9,51.7-13.9,74.5c0,16.1,5,24.5,15.6,24.5
			C415.9,892.7,430.9,881.1,447.6,858.8z"/>
	</g>
	<g>
		<path d="M78.4,733.2c-1.7,1.1-3.9,0.6-5.6-1.7c-1.7-2.2-1.7-4.4-0.6-6.1c8.9-8.9,21.1-19.5,36.7-31.1
			c15.6-11.7,31.1-21.1,46.7-28.9c5,0,7.8,2.8,7.8,8.9c-8.3,15-16.7,31.1-25,48.4s-15,35-21.1,51.7c-6.1,17.2-11.1,33.9-15,49.5
			c-3.9,16.1-5.6,28.9-5.6,39.5c0,13.3,4.4,20.6,13.3,20.6c7.2,0,13.9-2.8,21.1-9.5c6.7-6.1,14.5-14.5,23.9-25
			c1.1-1.1,2.8-1.1,5,1.1c1.7,1.7,2.2,4.4,1.1,6.7c-11.7,14.5-23.9,27.2-37.3,38.9c-13.3,11.7-25.6,17.2-37.3,17.2
			c-16.7,0-25-10.6-25-32.2c0-12.2,2.2-27.2,6.1-43.9c4.4-17.2,9.5-34.5,16.1-51.7c6.7-17.2,13.9-34.5,21.7-50.6
			c8.3-16.1,16.1-30,23.9-41.7c-7.2,5-16.1,11.7-26.7,20C91.7,721.5,83.4,728.2,78.4,733.2z M165.7,623.1c-2.2,2.2-3.9,2.2-5.6,0.6
			c-1.7-1.7-2.8-3.9-3.3-6.7s-1.1-6.1-1.1-10c0-3.9,1.1-7.2,2.8-9.5c16.7-23.4,40.6-48.4,71.2-74.5c1.7-0.6,3.9,0,5.6,1.7
			c1.7,1.7,2.2,3.3,1.1,4.4c-13.3,12.2-26.7,27.2-38.9,43.9C185.7,589.7,175.1,606.4,165.7,623.1z"/>
		<path d="M446.5,851.6c2.2-1.1,3.9-1.1,5.6,0c2.2,1.1,2.8,3.3,2.2,6.1c-11.1,15-23.4,27.8-36.7,39.5
			c-13.3,11.1-25.6,17.2-37.3,17.2c-20,0-30-12.8-30-38.9c0-22.2,3.9-46.7,11.7-73.4c7.8-26.7,18.3-53.9,32.2-81.2
			c2.8-4.4,3.9-8.9,3.9-13.3c0-7.2-3.3-10.6-9.5-10.6c-23.9,0-50.6,16.7-79,49.5c-28.9,32.8-55.6,85.1-80.1,155.1
			c-1.1,3.9-5,7.2-10.6,9.5c-5.6,2.2-11.1,3.3-16.7,3.3c-7.2,0-9.5-2.8-7.8-8.9c11.1-27.8,22.2-59.5,34.5-94
			c12.2-35,22.2-69.5,31.7-104c2.8-12.2,0.6-18.3-6.7-18.3c-6.7,0-12.8,3.3-19.5,9.5c-6.7,6.7-13.3,15-20.6,25
			c-1.1,1.1-2.8,1.1-4.4-1.1c-1.7-2.2-2.2-3.9-1.7-5.6c7.2-11.1,16.7-22.2,28.9-33.9c12.2-11.7,25.6-17.2,40-17.2
			c16.1,0,21.7,11.1,16.7,32.8c-2.8,14.5-6.1,29.5-10.6,45c-4.4,16.1-9.5,31.7-14.5,47.3c8.9-17.2,20-33.9,32.2-49.5
			c12.2-15.6,25-28.9,38.4-40c13.3-11.1,26.7-20,40-26.1c13.3-6.7,25.6-9.5,37.3-9.5c7.8,0,13.9,1.7,17.8,5.6
			c4.4,3.9,6.1,8.3,6.1,13.3c0,8.3-1.7,16.7-5.6,25c-13.3,24.5-25,50.6-34.5,77.3c-9.5,26.7-13.9,51.7-13.9,74.5
			c0,16.1,5,24.5,15.6,24.5C414.2,885.5,429.8,874.4,446.5,851.6z"/>
	</g>
</g>
</svg>
