<?xml version="1.0" encoding="utf-8"?>
<!-- Generator: Adobe Illustrator 23.0.4, SVG Export Plug-In . SVG Version: 6.00 Build 0)  -->
<svg version="1.1" id="Layer_4" xmlns="http://www.w3.org/2000/svg" xmlns:xlink="http://www.w3.org/1999/xlink" x="0px" y="0px"
	 viewBox="0 0 323.7 84.3" style="enable-background:new 0 0 323.7 84.3;" xml:space="preserve">
<style type="text/css">
	.st0{display:none;}
	.st1{display:inline;fill:#673AB7;}
	.st2{fill:#EA4335;}
	.st3{fill:#4285F4;}
	.st4{fill:#FBBC04;}
	.st5{fill:#0F9D58;}
	.st6{fill:#673AB7;}
	.st7{font-family:'GoogleSansDisplay-Medium';}
	.st8{font-size:32.186px;}
</style>
<g id="XMLID_261_" class="st0">
	<path id="XMLID_259_" class="st1" d="M5.2,0H0l14.8,25.6l2.6-4.5L5.2,0z"/>
	<path id="XMLID_258_" class="st1" d="M19.3,14.6L10.9,0H5.8l11.9,20.6l1.7-2.9c0.3-0.5,0.4-1,0.4-1.6C19.8,15.6,19.6,15,19.3,14.6z
		"/>
	<path id="XMLID_257_" class="st1" d="M9,16.7L0.2,32h5.1l6.3-10.9L9,16.7z"/>
	<path id="XMLID_256_" class="st1" d="M11.9,21.6L5.9,32h5.2l3.4-5.9L11.9,21.6z"/>
</g>
<g id="XMLID_1_" class="st0">
	<path class="st1" d="M78.1,8.1c0,1.8-0.5,3.1-1.6,4.2c-1.2,1.2-2.7,1.9-4.6,1.9c-1.8,0-3.3-0.6-4.6-1.9s-1.9-2.8-1.9-4.7
		s0.6-3.4,1.9-4.7c1.3-1.2,2.8-1.8,4.6-1.8c0.9,0,1.8,0.2,2.6,0.5c0.8,0.3,1.5,0.8,2,1.4l-1.1,1.1c-0.8-1-2-1.5-3.4-1.5
		c-1.3,0-2.5,0.5-3.4,1.4c-1,0.9-1.4,2.1-1.4,3.6s0.5,2.7,1.4,3.6c1,0.9,2.1,1.4,3.4,1.4c1.4,0,2.6-0.5,3.5-1.4
		c0.6-0.6,1-1.5,1.1-2.5H72V7.2h6.1C78,7.5,78.1,7.8,78.1,8.1z M79.7,13.9V1.3h3.8c1.9,0,3.5,0.6,4.6,1.7c1.2,1.2,1.7,2.7,1.7,4.5
		s-0.6,3.4-1.7,4.5c-1.2,1.2-2.7,1.7-4.6,1.7h-3.8V13.9z M81.3,12.3h2.2c1.4,0,2.6-0.4,3.4-1.2c0.8-0.8,1.3-2,1.3-3.5
		S87.8,5,86.9,4.1c-0.8-0.8-2-1.3-3.4-1.3h-2.2V12.3z M103.5,8.1c0,1.8-0.5,3.1-1.6,4.2c-1.2,1.2-2.7,1.9-4.6,1.9
		c-1.8,0-3.3-0.6-4.6-1.9s-1.9-2.8-1.9-4.7s0.6-3.4,1.9-4.7S95.5,1,97.3,1c0.9,0,1.8,0.2,2.6,0.5s1.5,0.8,2,1.4L100.8,4
		c-0.8-1-2-1.5-3.4-1.5c-1.3,0-2.5,0.5-3.4,1.4c-1,0.9-1.4,2.1-1.4,3.6s0.5,2.7,1.4,3.6c1,0.9,2.1,1.4,3.4,1.4
		c1.4,0,2.6-0.5,3.5-1.4c0.6-0.6,1-1.5,1.1-2.5h-4.6V7.2h6.1V8.1z M109.3,13.9V1.3h3.8c1.9,0,3.5,0.6,4.6,1.7
		c1.2,1.2,1.7,2.7,1.7,4.5s-0.6,3.4-1.7,4.5c-1.2,1.2-2.7,1.7-4.6,1.7h-3.8V13.9z M110.9,12.3h2.2c1.4,0,2.6-0.4,3.4-1.2
		s1.3-2,1.3-3.5s-0.4-2.6-1.3-3.5c-0.8-0.8-2-1.3-3.4-1.3h-2.2C110.9,2.8,110.9,12.3,110.9,12.3z M124.8,14.2
		c-1.3,0-2.3-0.4-3.2-1.3c-0.8-0.9-1.2-2-1.2-3.3c0-1.2,0.4-2.3,1.2-3.2c0.8-0.9,1.8-1.3,3-1.3c1.3,0,2.3,0.4,3.1,1.2
		c0.8,0.8,1.1,1.9,1.1,3.3v0.3H122c0,0.9,0.3,1.5,0.9,2c0.5,0.5,1.2,0.8,1.9,0.8c1.2,0,1.9-0.5,2.3-1.5l1.4,0.6
		c-0.3,0.7-0.7,1.2-1.4,1.7C126.5,13.9,125.7,14.2,124.8,14.2z M127.1,8.6c0-0.5-0.3-1-0.7-1.4c-0.4-0.4-1-0.7-1.8-0.7
		c-0.6,0-1.1,0.2-1.5,0.6s-0.7,0.9-0.9,1.5H127.1z M132.2,13.9l-3.5-8.6h1.8l2.5,6.6l2.6-6.6h1.7l-3.5,8.6
		C133.8,13.9,132.2,13.9,132.2,13.9z M139.9,13.9h-1.6V1.3h7.3v1.5h-5.7v4.1h5.1v1.5h-5.1C139.9,8.4,139.9,13.9,139.9,13.9z
		 M150.4,14.2c-1.3,0-2.3-0.4-3.2-1.3c-0.8-0.9-1.2-2-1.2-3.3c0-1.2,0.4-2.3,1.2-3.2s1.8-1.3,3-1.3c1.3,0,2.3,0.4,3.1,1.2
		c0.8,0.8,1.1,1.9,1.1,3.3v0.3h-6.8c0,0.9,0.3,1.5,0.9,2c0.5,0.5,1.2,0.8,1.9,0.8c1.2,0,1.9-0.5,2.3-1.5l1.4,0.6
		c-0.3,0.7-0.7,1.2-1.4,1.7C152.1,13.9,151.4,14.2,150.4,14.2z M152.7,8.6c0-0.5-0.3-1-0.7-1.4s-1-0.7-1.8-0.7
		c-0.6,0-1.1,0.2-1.5,0.6S148,8,147.8,8.6H152.7z M158.7,14.2c-1,0-1.7-0.2-2.4-0.7c-0.6-0.5-1.1-1-1.4-1.8l1.4-0.6
		c0.5,1.1,1.2,1.6,2.3,1.6c0.5,0,0.9-0.1,1.2-0.3c0.3-0.2,0.5-0.5,0.5-0.9c0-0.6-0.4-0.9-1.2-1.1l-1.7-0.4c-0.5-0.1-1.1-0.4-1.6-0.8
		s-0.7-0.9-0.7-1.6c0-0.8,0.3-1.4,1-1.8c0.7-0.5,1.5-0.7,2.4-0.7c0.8,0,1.4,0.2,2,0.5s1,0.8,1.3,1.5l-1.4,0.6c-0.3-0.8-1-1.1-2-1.1
		c-0.5,0-0.9,0.1-1.2,0.3c-0.3,0.2-0.5,0.5-0.5,0.8c0,0.5,0.4,0.8,1.1,1l1.7,0.4c0.8,0.2,1.4,0.5,1.8,1s0.6,1,0.6,1.5
		c0,0.8-0.3,1.4-0.9,1.9C160.5,13.9,159.7,14.2,158.7,14.2z M166.9,14c-0.9,0-1.6-0.2-2.1-0.7s-0.7-1.2-0.7-2V6.8h-1.5V5.3h1.5V2.7
		h1.6v2.6h2.1v1.5h-2.1v4.4c0,0.9,0.4,1.4,1.2,1.4c0.3,0,0.5,0,0.7-0.1l0.6,1.4C167.9,13.9,167.4,14,166.9,14z M69.5,30.7
		c-0.9,0-1.8-0.3-2.7-0.9c-0.9-0.6-1.4-1.4-1.7-2.5l1.5-0.6c0.2,0.7,0.5,1.3,1.1,1.7c0.5,0.5,1.2,0.7,1.8,0.7c0.7,0,1.3-0.2,1.8-0.6
		S72,27.6,72,27c0-0.7-0.2-1.2-0.7-1.6s-1.3-0.7-2.4-1.1c-1.1-0.3-1.9-0.8-2.5-1.4s-0.9-1.3-0.9-2.1c0-0.9,0.4-1.7,1.1-2.3
		c0.7-0.7,1.6-1,2.8-1c1.1,0,1.9,0.3,2.6,0.8s1.1,1.1,1.3,1.7l-1.4,0.7c-0.1-0.4-0.4-0.8-0.8-1.1c-0.4-0.3-0.9-0.5-1.6-0.5
		c-0.6,0-1.1,0.2-1.6,0.5c-0.4,0.3-0.7,0.8-0.7,1.3s0.2,0.9,0.6,1.2c0.4,0.3,1,0.6,1.8,0.9c0.6,0.2,1.1,0.4,1.5,0.6s0.8,0.4,1.3,0.7
		c0.4,0.3,0.7,0.7,1,1.2c0.2,0.5,0.3,1,0.3,1.6s-0.1,1.1-0.4,1.6c-0.3,0.5-0.6,0.9-1,1.1c-0.4,0.3-0.9,0.5-1.3,0.6
		C70.5,30.6,70,30.7,69.5,30.7L69.5,30.7z M79,30.7c-1.3,0-2.3-0.4-3.2-1.3c-0.8-0.9-1.2-2-1.2-3.3c0-1.2,0.4-2.3,1.2-3.2
		c0.8-0.9,1.8-1.3,3-1.3c1.3,0,2.3,0.4,3.1,1.2c0.8,0.8,1.1,1.9,1.1,3.3v0.3h-6.8c0,0.9,0.3,1.5,0.9,2c0.5,0.5,1.2,0.8,1.9,0.8
		c1.2,0,1.9-0.5,2.3-1.5l1.4,0.6C82.4,29,82,29.5,81.3,30C80.7,30.4,79.9,30.7,79,30.7z M81.3,25.1c0-0.5-0.3-1-0.7-1.4
		s-1-0.7-1.8-0.7c-0.6,0-1.1,0.2-1.5,0.6c-0.4,0.4-0.7,0.9-0.9,1.5H81.3z M86.8,30.7c-0.9,0-1.7-0.3-2.3-0.8s-0.9-1.2-0.9-2.1
		s0.4-1.7,1.1-2.2c0.7-0.5,1.6-0.8,2.7-0.8c0.9,0,1.7,0.2,2.3,0.5v-0.2c0-0.6-0.2-1.1-0.6-1.5c-0.4-0.4-1-0.6-1.6-0.6
		c-0.5,0-0.9,0.1-1.3,0.3c-0.4,0.2-0.6,0.5-0.8,0.9l-1.5-0.6c0.2-0.5,0.6-1,1.2-1.4c0.6-0.4,1.4-0.7,2.3-0.7c1.1,0,2,0.3,2.7,1
		c0.7,0.6,1.1,1.5,1.1,2.7v5.2h-1.5v-1.2h-0.1C89,30.2,88.1,30.7,86.8,30.7z M87.1,29.2c0.7,0,1.3-0.2,1.8-0.7s0.8-1.1,0.8-1.8
		c-0.5-0.4-1.1-0.6-2-0.6c-0.8,0-1.4,0.2-1.8,0.5c-0.4,0.3-0.6,0.7-0.6,1.2c0,0.4,0.2,0.8,0.5,1C86.2,29.1,86.6,29.2,87.1,29.2z
		 M95.9,30.7c-1,0-1.7-0.2-2.4-0.7c-0.6-0.5-1.1-1-1.4-1.8l1.4-0.6c0.5,1.1,1.2,1.6,2.3,1.6c0.5,0,0.9-0.1,1.2-0.3
		c0.3-0.2,0.5-0.5,0.5-0.9c0-0.6-0.4-0.9-1.2-1.1l-1.7-0.4c-0.5-0.1-1.1-0.4-1.6-0.8s-0.7-0.9-0.7-1.6c0-0.8,0.3-1.4,1-1.8
		c0.7-0.5,1.5-0.7,2.4-0.7c0.8,0,1.4,0.2,2,0.5s1,0.8,1.3,1.5l-1.4,0.6c-0.3-0.8-1-1.1-2-1.1c-0.5,0-0.9,0.1-1.2,0.3
		c-0.1,0.1-0.3,0.3-0.3,0.7c0,0.5,0.4,0.8,1.1,1l1.7,0.4c0.8,0.2,1.4,0.5,1.8,1s0.6,1,0.6,1.5c0,0.8-0.3,1.4-0.9,1.9
		C97.7,30.4,96.9,30.7,95.9,30.7z M101.1,22.8c0.8-0.9,1.9-1.3,3.2-1.3c1.3,0,2.3,0.4,3.2,1.3c0.8,0.9,1.2,2,1.2,3.3
		s-0.4,2.4-1.2,3.3c-0.8,0.9-1.9,1.3-3.2,1.3c-1.3,0-2.3-0.4-3.2-1.3c-0.8-0.9-1.2-2-1.2-3.3S100.3,23.7,101.1,22.8z M102.3,28.3
		c0.6,0.6,1.2,0.8,2,0.8s1.4-0.3,2-0.8c0.6-0.6,0.8-1.3,0.8-2.2c0-0.9-0.3-1.7-0.8-2.2c-0.6-0.6-1.2-0.8-2-0.8s-1.4,0.3-2,0.8
		c-0.6,0.6-0.8,1.3-0.8,2.2C101.5,27,101.8,27.8,102.3,28.3z M111.4,21.8V23h0.1c0.2-0.4,0.6-0.8,1.1-1c0.5-0.3,1-0.4,1.6-0.4
		c1.1,0,1.9,0.3,2.4,1c0.6,0.7,0.8,1.5,0.8,2.6v5.2h-1.6v-5c0-1.6-0.7-2.4-2.1-2.4c-0.7,0-1.2,0.3-1.6,0.8s-0.6,1.1-0.6,1.8v4.7
		h-1.6v-8.6h1.5L111.4,21.8z M130.6,30.4H123v-1.6c2.3-2.3,3.8-3.8,4.4-4.5c0.6-0.6,1-1.1,1.2-1.5c0.2-0.3,0.3-0.7,0.3-1.2
		s-0.2-0.9-0.6-1.3c-0.4-0.4-0.9-0.6-1.6-0.6c-0.6,0-1.1,0.2-1.5,0.5c-0.4,0.4-0.6,0.7-0.7,1.1l-1.6-0.6c0.2-0.6,0.6-1.2,1.2-1.8
		c0.6-0.6,1.4-0.8,2.4-0.8c1.1,0,2,0.3,2.7,1s1.1,1.5,1.1,2.4c0,1.2-0.6,2.4-1.9,3.7l-3.5,3.5h5.5v1.7H130.6z M139.8,28.9
		c-0.9,1.2-2,1.8-3.5,1.8c-1.4,0-2.6-0.6-3.5-1.8c-0.9-1.2-1.3-2.7-1.3-4.5s0.4-3.3,1.3-4.5s2-1.8,3.5-1.8c1.4,0,2.6,0.6,3.5,1.8
		c0.9,1.2,1.3,2.7,1.3,4.5S140.7,27.7,139.8,28.9z M136.3,29.1c1,0,1.7-0.4,2.3-1.3c0.6-0.9,0.9-2,0.9-3.4s-0.3-2.5-0.9-3.4
		s-1.3-1.3-2.3-1.3s-1.7,0.4-2.3,1.3c-0.6,0.9-0.9,2-0.9,3.4s0.3,2.5,0.9,3.4C134.5,28.7,135.3,29.1,136.3,29.1z M146.2,30.4h-1.6
		v-10l-2.3,1l-0.6-1.4l3.5-1.6h1V30.4z M155,29.6c-0.8,0.7-1.7,1-2.9,1c-1.1,0-2.1-0.3-2.9-1c-0.8-0.7-1.2-1.5-1.2-2.6
		c0-0.7,0.2-1.3,0.5-1.8c0.4-0.5,0.8-0.9,1.4-1.2v-0.1c-0.5-0.3-0.8-0.7-1.1-1.1c-0.3-0.4-0.4-0.9-0.4-1.4c0-1,0.3-1.8,1-2.4
		s1.6-1,2.6-1c1.1,0,1.9,0.3,2.6,1c0.7,0.6,1,1.5,1,2.4c0,0.5-0.1,1-0.4,1.4c-0.3,0.4-0.7,0.8-1.1,1.1V24c0.6,0.3,1.1,0.7,1.4,1.2
		c0.4,0.5,0.5,1.1,0.5,1.8C156.2,28.1,155.8,28.9,155,29.6z M150.4,28.5c0.5,0.4,1,0.6,1.7,0.6s1.2-0.2,1.7-0.6s0.7-0.9,0.7-1.5
		s-0.2-1.1-0.7-1.5s-1-0.6-1.7-0.6s-1.2,0.2-1.7,0.6s-0.7,0.9-0.7,1.5S150,28.1,150.4,28.5z M150.7,22.8c0.4,0.3,0.9,0.5,1.4,0.5
		c0.6,0,1.1-0.2,1.4-0.5c0.4-0.3,0.6-0.8,0.6-1.4s-0.2-1-0.6-1.3s-0.9-0.5-1.4-0.5c-0.6,0-1.1,0.2-1.4,0.5c-0.4,0.3-0.6,0.8-0.6,1.3
		C150.1,22,150.3,22.5,150.7,22.8z"/>
</g>
<g>
	<g>
		<path class="st2" d="M29.9,42.3L44.3,34c3.4-2,4.6-6.3,2.6-9.7c-2-3.4-6.3-4.6-9.7-2.6L12.3,36.1L29.9,42.3z"/>
	</g>
	<g>
		<path class="st3" d="M40.7,63.7c2.5,0,4.9-1.3,6.1-3.6c2-3.4,0.8-7.7-2.6-9.7L19.3,36.1c-3.4-2-7.7-0.8-9.7,2.6s-0.8,7.7,2.6,9.7
			l24.9,14.4C38.3,63.4,39.5,63.7,40.7,63.7z"/>
	</g>
	<g>
		<path class="st4" d="M65.5,63.7c1.2,0,2.4-0.3,3.5-1L94,48.4L76.6,42L62,50.5c-3.4,2-4.6,6.3-2.6,9.7
			C60.7,62.4,63.1,63.7,65.5,63.7z"/>
	</g>
	<g>
		<path class="st5" d="M90.4,49.3c2.5,0,4.9-1.3,6.1-3.6c2-3.4,0.8-7.7-2.6-9.7L69,21.7c-3.4-2-7.7-0.8-9.7,2.6
			c-2,3.4-0.8,7.7,2.6,9.7l24.9,14.4C88,49,89.2,49.3,90.4,49.3z"/>
	</g>
</g>
<text transform="matrix(1 0 0 1 115.7747 34.548)" class="st6 st7 st8">GDG DevFest</text>
<text transform="matrix(1 0 0 1 115.7747 71.0382)" class="st6 st7 st8">Veneto 19</text>
</svg>
