<?xml version="1.0" encoding="utf-8"?>
<!-- Generator: Adobe Illustrator 23.0.4, SVG Export Plug-In . SVG Version: 6.00 Build 0)  -->
<svg version="1.1" id="Layer_4" xmlns="http://www.w3.org/2000/svg" xmlns:xlink="http://www.w3.org/1999/xlink" x="0px" y="0px"
	 viewBox="0 0 1089 372" style="enable-background:new 0 0 1089 372;" xml:space="preserve">
<style type="text/css">
	.st0{display:none;}
	.st1{display:inline;}
	.st2{fill:none;}
	.st3{fill:#FFC107;}
	.st4{fill:#0F9D58;}
	.st5{opacity:0.2;fill:#BF360C;enable-background:new    ;}
	.st6{opacity:0.2;fill:#263238;enable-background:new    ;}
	.st7{opacity:0.2;fill:#FFFFFF;enable-background:new    ;}
	.st8{fill:url(#XMLID_7_);}
	.st9{fill:url(#XMLID_34_);}
	.st10{fill:#4285F4;}
	.st11{fill:#DB4437;}
	.st12{opacity:0.2;fill:#1A237E;enable-background:new    ;}
	.st13{opacity:0.2;fill:#3E2723;enable-background:new    ;}
	.st14{fill:url(#XMLID_35_);}
	.st15{fill:#EA4335;}
	.st16{fill:#FBBC04;}
	.st17{fill:#FFFFFF;}
	.st18{font-family:'ProductSans-Regular';}
	.st19{font-size:101.8634px;}
</style>
<g id="XMLID_2_" class="st0">
	<g id="XMLID_3_" class="st1">
		<g id="XMLID_4_">
			<path id="XMLID_33_" class="st2" d="M410.7,58L377.1,0h-44.8l37,64l-37,64h44.8l33.5-58C412.8,66.3,412.8,61.7,410.7,58z"/>
			<path id="XMLID_32_" class="st3" d="M391.4,102.3l-10.6-18.4L355.3,128h21.8l14.6-25.2L391.4,102.3z"/>
			<path id="XMLID_31_" class="st2" d="M410.7,58L377.1,0h-44.8l37,64l-37,64h44.8l33.5-58C412.8,66.3,412.8,61.7,410.7,58z"/>
			<path id="XMLID_30_" class="st4" d="M369.3,64l11.5,19.9L355.3,128h-23L369.3,64z"/>
			<path id="XMLID_29_" class="st2" d="M410.7,58L377.1,0h-44.8l37,64l-37,64h44.8l33.5-58C412.8,66.3,412.8,61.7,410.7,58z"/>
			<path id="XMLID_28_" class="st5" d="M377.1,127h-21.3l-0.5,1h21.8l14.6-25.2l-0.3-0.5L377.1,127z"/>
			<path id="XMLID_27_" class="st2" d="M410.7,58L377.1,0h-44.8l37,64l-37,64h44.8l33.5-58C412.8,66.3,412.8,61.7,410.7,58z"/>
			<path id="XMLID_26_" class="st6" d="M332.8,127l-0.5,1h23l0.5-1H332.8z"/>
			<path id="XMLID_25_" class="st2" d="M410.7,58L377.1,0h-44.8l37,64l-37,64h44.8l33.5-58C412.8,66.3,412.8,61.7,410.7,58z"/>
			<path id="XMLID_24_" class="st7" d="M332.3,128h0.5l36.8-63.5l-0.3-0.5L332.3,128z"/>
			<path id="XMLID_23_" class="st2" d="M410.7,58L377.1,0h-44.8l37,64l-37,64h44.8l33.5-58C412.8,66.3,412.8,61.7,410.7,58z"/>
			
				<radialGradient id="XMLID_7_" cx="391.537" cy="83.626" r="44.264" gradientTransform="matrix(1 0 0 -1 0 186)" gradientUnits="userSpaceOnUse">
				<stop  offset="0" style="stop-color:#BF360C;stop-opacity:0.2"/>
				<stop  offset="1" style="stop-color:#BF360C;stop-opacity:2.000000e-02"/>
			</radialGradient>
			<path id="XMLID_22_" class="st8" d="M391.7,102.8l-10.9-18.9l-2.7,4.6L391.7,102.8z"/>
			<path id="XMLID_21_" class="st2" d="M410.7,58L377.1,0h-44.8l37,64l-37,64h44.8l33.5-58C412.8,66.3,412.8,61.7,410.7,58z"/>
			
				<radialGradient id="XMLID_34_" cx="391.411" cy="83.346" r="44.623" gradientTransform="matrix(1 0 0 -1 0 186)" gradientUnits="userSpaceOnUse">
				<stop  offset="0" style="stop-color:#263238;stop-opacity:0.2"/>
				<stop  offset="1" style="stop-color:#263238;stop-opacity:2.000000e-02"/>
			</radialGradient>
			<path id="XMLID_20_" class="st9" d="M378.1,88.5l2.7-4.6L369.3,64l-5.5,9.5L378.1,88.5z"/>
			<path id="XMLID_19_" class="st2" d="M410.7,58L377.1,0h-44.8l37,64l-37,64h44.8l33.5-58C412.8,66.3,412.8,61.7,410.7,58z"/>
			<g id="XMLID_16_">
				<g id="XMLID_17_">
					<path id="XMLID_18_" class="st10" d="M355.3,0h-23l59.4,102.8l11.5-19.9L355.3,0z"/>
				</g>
			</g>
			<path id="XMLID_15_" class="st2" d="M410.7,58L377.1,0h-44.8l37,64l-37,64h44.8l33.5-58C412.8,66.3,412.8,61.7,410.7,58z"/>
			<path id="XMLID_14_" class="st11" d="M410.7,70c2.1-3.7,2.1-8.3,0-12L377.1,0h-21.8l47.9,82.9L410.7,70z"/>
			<path id="XMLID_13_" class="st2" d="M410.7,58L377.1,0h-44.8l37,64l-37,64h44.8l33.5-58C412.8,66.3,412.8,61.7,410.7,58z"/>
			<path id="XMLID_12_" class="st12" d="M403.2,82.9l-0.3-0.5l-11.2,19.4L332.8,0h-0.5l59.4,102.8L403.2,82.9z"/>
			<path id="XMLID_11_" class="st2" d="M410.7,58L377.1,0h-44.8l37,64l-37,64h44.8l33.5-58C412.8,66.3,412.8,61.7,410.7,58z"/>
			<path id="XMLID_10_" class="st7" d="M377.1,1l33.5,58c1,1.7,1.5,3.6,1.6,5.5c0.1-2.2-0.4-4.5-1.6-6.5L377.1,0h-44.8l0.6,1
				C332.9,1,377.1,1,377.1,1z"/>
			<path id="XMLID_9_" class="st2" d="M410.7,58L377.1,0h-44.8l37,64l-37,64h44.8l33.5-58C412.8,66.3,412.8,61.7,410.7,58z"/>
			<path id="XMLID_8_" class="st13" d="M403.2,82.9l7.5-12.9c1.2-2,1.7-4.3,1.6-6.5c-0.1,1.9-0.6,3.8-1.6,5.5L403,82.4L403.2,82.9z"
				/>
			<path id="XMLID_6_" class="st2" d="M410.7,58L377.1,0h-44.8l37,64l-37,64h44.8l33.5-58C412.8,66.3,412.8,61.7,410.7,58z"/>
			
				<radialGradient id="XMLID_35_" cx="331.26" cy="185" r="134.35" gradientTransform="matrix(1 0 0 -1 0 186)" gradientUnits="userSpaceOnUse">
				<stop  offset="0" style="stop-color:#FFFFFF;stop-opacity:0.1"/>
				<stop  offset="1" style="stop-color:#FFFFFF;stop-opacity:0"/>
			</radialGradient>
			<path id="XMLID_5_" class="st14" d="M410.7,58L377.1,0h-44.8l37,64l-37,64h44.8l33.5-58C412.8,66.3,412.8,61.7,410.7,58z"/>
		</g>
	</g>
</g>
<g>
	<g>
		<path class="st15" d="M98.8,182.4l55.9-32.3c13.2-7.6,17.7-24.4,10.1-37.6c-7.6-13.2-24.4-17.7-37.6-10.1l-96.6,55.8L98.8,182.4z"
			/>
	</g>
	<g>
		<path class="st10" d="M140.9,265.4c9.5,0,18.8-4.9,23.8-13.8c7.6-13.2,3.1-30-10.1-37.6L58,158.2c-13.2-7.6-30-3.1-37.6,10.1
			c-7.6,13.2-3.1,30,10.1,37.6l96.6,55.8C131.5,264.2,136.2,265.4,140.9,265.4z"/>
	</g>
	<g>
		<path class="st16" d="M237,265.4c4.7,0,9.4-1.2,13.7-3.7l96.6-55.8L280,181.3L223.2,214c-13.2,7.6-17.7,24.4-10.1,37.6
			C218.2,260.4,227.5,265.4,237,265.4z"/>
	</g>
	<g>
		<path class="st4" d="M333.5,209.6c9.5,0,18.8-4.9,23.8-13.8c7.6-13.2,3.1-30-10.1-37.6l-96.6-55.8c-13.2-7.6-30-3.1-37.6,10.1
			s-3.1,30,10.1,37.6l96.6,55.8C324.1,208.4,328.9,209.6,333.5,209.6z"/>
	</g>
</g>
<rect x="422.4" y="83" class="st2" width="696.1" height="231.3"/>
<text transform="matrix(1 0 0 1 422.4062 155.8975)" class="st17 st18 st19">GDG DevFest</text>
<text transform="matrix(1 0 0 1 422.4062 278.0975)" class="st17 st18 st19">Veneto 19</text>
</svg>
